<?xml version="1.0" standalone="no"?>
<!DOCTYPE svg PUBLIC "-//W3C//DTD SVG 1.1//EN" "http://www.w3.org/Graphics/SVG/1.1/DTD/svg11.dtd" >
<svg>
<metadata>
Created by FontForge 20090622 at Fri Mar 17 11:22:56 2017
 By deploy user
Copyright 1990-1998 Bitstream Inc.  All rights reserved.
</metadata>
<defs>
<font id="RevueBT-Regular" horiz-adv-x="1024" >
  <font-face 
    font-family="Revue BT"
    font-weight="400"
    font-stretch="normal"
    units-per-em="2048"
    panose-1="4 3 8 5 2 13 2 2 8 2"
    ascent="1556"
    descent="-492"
    x-height="1139"
    cap-height="1518"
    bbox="-342 -485 2167 1972"
    underline-thickness="242"
    underline-position="-98"
    unicode-range="U+0020-U+F002"
  />
<missing-glyph horiz-adv-x="1229" 
d="M102 -362v1806h1024v-1806h-1024zM217 -248h795v1577h-795v-1577z" />
    <glyph glyph-name=".notdef" horiz-adv-x="1229" 
d="M102 -362v1806h1024v-1806h-1024zM217 -248h795v1577h-795v-1577z" />
    <glyph glyph-name=".null" horiz-adv-x="0" 
 />
    <glyph glyph-name="nonmarkingreturn" horiz-adv-x="682" 
 />
    <glyph glyph-name="space" unicode=" " horiz-adv-x="682" 
 />
    <glyph glyph-name="exclam" unicode="!" horiz-adv-x="692" 
d="M545 440h-398v1078h398v-1078zM545 356v-356h-398v356h398z" />
    <glyph glyph-name="quotedbl" unicode="&#x22;" horiz-adv-x="713" 
d="M416 1438h223v-561h-223v561zM76 1438h219v-561h-219v561z" />
    <glyph glyph-name="numbersign" unicode="#" horiz-adv-x="1575" 
d="M707 842l-82 -232h245l82 232h-245zM684 1466h250l-139 -393h235l141 393h250l-139 -393h270l-86 -231h-268l-80 -230h277l-84 -231h-275l-141 -393h-250l139 393h-235l-141 -393h-250l139 393h-274l86 231h270l82 230h-283l86 231h279z" />
    <glyph glyph-name="dollar" unicode="$" horiz-adv-x="1366" 
d="M502 1651h327v-133h209l92 -347h-403q-41 0 -59.5 -12t-18.5 -39q0 -15 8.5 -31t28.5 -38l332 -371q76 -86 112.5 -167t36.5 -165q0 -143 -88.5 -233.5t-249.5 -110.5v-170h-327v166h-207l-98 346h446q35 0 52.5 14t17.5 41q0 13 -8.5 29.5t-22.5 32.5l-367 409
q-56 62 -86 138.5t-30 154.5q0 140 81 232.5t222 111.5v142z" />
    <glyph glyph-name="percent" unicode="%" horiz-adv-x="1489" 
d="M1001 393q0 -75 34 -142t69 -67t68.5 67t33.5 144q0 46 -25 68t-77 22t-77.5 -22.5t-25.5 -69.5zM772 434q0 138 79 201t253 63q173 0 252.5 -63t79.5 -201q0 -197 -97.5 -335t-234.5 -138t-234.5 138t-97.5 335zM1024 1518l221 -121l-842 -1397l-213 131zM281 1233
q0 -75 34.5 -143t69.5 -68t68.5 66.5t33.5 144.5q0 46 -25 68t-77 22q-53 0 -78.5 -22.5t-25.5 -67.5zM51 1272q0 137 80 200.5t254 63.5q173 0 252.5 -63t79.5 -201q0 -197 -97.5 -334t-234.5 -137t-235.5 137.5t-98.5 333.5z" />
    <glyph glyph-name="ampersand" unicode="&#x26;" horiz-adv-x="1475" 
d="M1139 1171h-494q-30 0 -47.5 -17t-17.5 -46q0 -47 76.5 -121t236.5 -182q-188 -130 -271 -216.5t-83 -150.5q0 -42 31 -67t85 -25h297v588h414v-270h-53v-664h-641q-191 0 -267 11.5t-131 37.5q-89 44 -140.5 131t-51.5 197q0 116 60 222t190 218q-104 85 -154.5 175.5
t-50.5 189.5q0 154 106.5 245t290.5 91h525z" />
    <glyph glyph-name="quotesingle" unicode="'" horiz-adv-x="371" 
d="M76 1438h219v-561h-219v561z" />
    <glyph glyph-name="parenleft" unicode="(" horiz-adv-x="827" 
d="M766 1546q-104 -231 -156.5 -447t-52.5 -415q0 -198 53 -416t158 -452l-340 -160q-135 251 -201.5 505.5t-66.5 516.5q0 287 67.5 546t200.5 482z" />
    <glyph glyph-name="parenright" unicode=")" horiz-adv-x="827" 
d="M51 -184q103 228 155 445t52 417t-52.5 418t-156.5 450l340 160q134 -249 200 -503.5t66 -518.5q0 -289 -67 -548t-199 -480z" />
    <glyph glyph-name="asterisk" unicode="*" 
d="M340 635l-205 147l191 238l-271 76l78 237l260 -92v277h238v-277l260 90l78 -237l-273 -72l191 -240l-205 -143l-170 246z" />
    <glyph glyph-name="plus" unicode="+" horiz-adv-x="1706" 
d="M735 1221h238v-494h479v-231h-479v-496h-238v496h-481v231h481v494z" />
    <glyph glyph-name="comma" unicode="," horiz-adv-x="707" 
d="M395 -168h-368l161 526h369z" />
    <glyph glyph-name="hyphen" unicode="-" horiz-adv-x="711" 
d="M51 729h608v-307h-608v307z" />
    <glyph glyph-name="period" unicode="." horiz-adv-x="707" 
d="M530 356v-356h-354v356h354z" />
    <glyph glyph-name="slash" unicode="/" horiz-adv-x="1034" 
d="M852 1518l223 -136l-946 -1572l-225 133z" />
    <glyph glyph-name="zero" unicode="0" horiz-adv-x="1366" 
d="M682 1190q-122 0 -181 -65t-59 -201q0 -86 13 -169.5t39 -162.5q40 -126 89 -193t99 -67q38 0 74.5 36t70.5 107q46 96 70.5 209t24.5 229q0 144 -58 210.5t-182 66.5zM51 954q0 294 156 438t475 144q320 0 475.5 -143.5t155.5 -438.5q0 -189 -46.5 -362t-136.5 -320
q-99 -159 -208.5 -235t-239.5 -76t-238.5 75.5t-207.5 235.5q-91 147 -138 321.5t-47 360.5z" />
    <glyph glyph-name="one" unicode="1" horiz-adv-x="1366" 
d="M915 0h-403v1171h-248l90 347h561v-1518z" />
    <glyph glyph-name="two" unicode="2" horiz-adv-x="1366" 
d="M279 1518h456q193 0 293 -78.5t100 -229.5q0 -54 -15.5 -110.5t-49.5 -120.5l-324 -625h439l-103 -354h-969l539 1040q13 26 18 41t5 27q0 29 -20 46t-54 17h-406z" />
    <glyph glyph-name="three" unicode="3" horiz-adv-x="1366" 
d="M178 1171l90 347h494q184 0 290.5 -91t106.5 -245q0 -99 -50.5 -189.5t-154.5 -175.5q130 -112 190 -218t60 -222q0 -111 -51 -197.5t-141 -130.5q-55 -26 -131 -37.5t-267 -11.5h-364l-100 354h481q54 0 85.5 23t31.5 61q0 62 -83.5 148.5t-271.5 218.5
q169 115 242.5 187t73.5 120q0 26 -19 42.5t-49 16.5h-463z" />
    <glyph glyph-name="four" unicode="4" horiz-adv-x="1366" 
d="M1133 676h122v-346h-122v-330h-390v330h-630v309l383 879h409l-377 -848h215v295h390v-289z" />
    <glyph glyph-name="five" unicode="5" horiz-adv-x="1366" 
d="M1133 1171h-476l-8 -153h56q244 0 363.5 -104t119.5 -316q0 -274 -217 -445t-572 -171h-45l-108 354h41q231 0 359 61.5t128 171.5q0 64 -45.5 93.5t-144.5 29.5h-338l45 826h751z" />
    <glyph glyph-name="six" unicode="6" horiz-adv-x="1366" 
d="M1047 1518q-127 -167 -208 -286.5t-130 -213.5q267 -14 411 -147.5t144 -366.5q0 -248 -155.5 -385t-436.5 -137q-267 0 -412 131.5t-145 373.5q0 216 118.5 476.5t350.5 554.5h463zM559 694q-21 -44 -32 -89t-11 -89q0 -91 45.5 -140.5t128.5 -49.5q75 0 121.5 46.5
t46.5 121.5q0 94 -71.5 147t-200.5 53h-27z" />
    <glyph glyph-name="seven" unicode="7" horiz-adv-x="1366" 
d="M266 1518h944l-469 -1518h-426l365 1171h-504z" />
    <glyph glyph-name="eight" unicode="8" horiz-adv-x="1366" 
d="M682 985q81 57 108 90.5t27 71.5q0 39 -36 62.5t-99 23.5q-62 0 -96.5 -24t-34.5 -66q0 -35 28 -69.5t103 -88.5zM682 618q-98 -84 -131 -128t-33 -82q0 -52 40.5 -77.5t123.5 -25.5q82 0 124 25t42 73q0 43 -33 88t-133 127zM981 807q139 -106 199.5 -207t60.5 -223
q0 -102 -41 -185t-115 -133q-62 -42 -148.5 -59.5t-254.5 -17.5q-167 0 -252.5 17.5t-148.5 59.5q-75 50 -116.5 133.5t-41.5 184.5q0 122 60.5 223t199.5 207q-115 97 -165 184.5t-50 188.5q0 180 127 268t387 88q259 0 387.5 -88.5t128.5 -267.5q0 -100 -51 -188
t-166 -185z" />
    <glyph glyph-name="nine" unicode="9" horiz-adv-x="1366" 
d="M692 479q-287 53 -440.5 202t-153.5 374q0 228 143.5 354.5t401.5 126.5q317 0 469 -141.5t152 -436.5q0 -234 -89.5 -446.5t-238.5 -335.5q-118 -98 -268 -146t-338 -48l-94 354h12q160 0 273.5 36.5t170.5 106.5zM834 807q11 45 16.5 81.5t5.5 69.5q0 116 -49 174
t-145 58q-68 0 -111 -40.5t-43 -105.5q0 -90 83 -150.5t243 -86.5z" />
    <glyph glyph-name="colon" unicode=":" horiz-adv-x="707" 
d="M530 1049v-355h-354v355h354zM530 356v-356h-354v356h354z" />
    <glyph glyph-name="semicolon" unicode=";" horiz-adv-x="707" 
d="M395 -168h-368l161 526h369zM530 1049v-355h-354v355h354z" />
    <glyph glyph-name="less" unicode="&#x3c;" horiz-adv-x="1706" 
d="M1442 1214v-253l-854 -351l854 -348v-254l-1178 486v233z" />
    <glyph glyph-name="equal" unicode="=" horiz-adv-x="1706" 
d="M254 502h1198v-230h-1198v230zM254 950h1198v-231h-1198v231z" />
    <glyph glyph-name="greater" unicode="&#x3e;" horiz-adv-x="1706" 
d="M264 1214l1178 -487v-233l-1178 -486v254l854 348l-854 351v253z" />
    <glyph glyph-name="question" unicode="?" horiz-adv-x="1110" 
d="M217 500q0 81 19.5 123.5t68.5 85.5l211 184q60 51 86.5 92.5t26.5 81.5q0 55 -37 79.5t-121 24.5h-428l90 347h418q238 0 372 -113.5t134 -312.5q0 -125 -64 -238t-200 -229l-117 -99q-6 -6 -19 -16q-41 -35 -41 -66v-4h-399v60zM621 0h-408v356h408v-356z" />
    <glyph glyph-name="at" unicode="@" horiz-adv-x="2048" 
d="M1161 262q-56 -82 -126.5 -120t-168.5 -38q-163 0 -247 87.5t-84 257.5q0 241 141.5 404t349.5 163q77 0 134 -30.5t95 -92.5l52 92h206l-153 -610q0 -2 -1 -6q-3 -18 -3 -27q0 -30 16 -44.5t47 -14.5q137 0 240.5 143.5t103.5 335.5q0 239 -179.5 390t-467.5 151
q-148 0 -274 -36.5t-230 -109.5q-155 -110 -239 -274.5t-84 -356.5q0 -302 203 -481.5t544 -179.5q164 0 316 47.5t280 138.5l97 -135q-156 -117 -329 -175t-364 -58q-192 0 -354.5 49t-288.5 145q-157 122 -234 281.5t-77 361.5q0 169 53 320.5t156 277.5
q148 183 359.5 278t467.5 95q170 0 320 -46t260 -132q136 -107 203 -243t67 -306q0 -167 -65.5 -307t-190.5 -240q-69 -56 -154 -85.5t-176 -29.5q-106 0 -161 40t-60 120zM1198 696q-9 76 -50 116t-110 40q-103 0 -181.5 -121.5t-78.5 -286.5q0 -83 35 -128.5t98 -45.5
q84 0 148 59t88 158z" />
    <glyph glyph-name="A" unicode="A" horiz-adv-x="1442" 
d="M1030 1518h244l92 -342h-309q-222 0 -352.5 -82.5t-196.5 -264.5h387v285h410v-1114h-410v479h-428q6 -124 45 -243.5t111 -235.5l-324 -213q-122 187 -183 375.5t-61 380.5q0 217 72.5 408t204.5 323q123 123 295.5 183.5t402.5 60.5z" />
    <glyph glyph-name="B" unicode="B" horiz-adv-x="1450" 
d="M147 1114h398v-768h284q56 0 83.5 21t27.5 63q0 86 -95 179t-290 198q172 111 247 180.5t75 116.5q0 37 -27.5 54.5t-87.5 17.5h-686l92 342h670q240 0 361.5 -85t121.5 -253q0 -100 -47 -186t-148 -169q129 -90 197 -203t68 -235q0 -106 -43 -186.5t-127 -130.5
q-63 -38 -164 -54t-324 -16h-586v1114z" />
    <glyph glyph-name="C" unicode="C" horiz-adv-x="1147" 
d="M971 0q-194 0 -340 50t-264 157q-148 132 -229 318.5t-81 394.5q0 153 49 272t144 199q81 67 192 97t293 30h236l98 -347h-283q-174 0 -248.5 -64.5t-74.5 -213.5q0 -255 160.5 -403t439.5 -148h31l-103 -342h-20z" />
    <glyph glyph-name="D" unicode="D" horiz-adv-x="1460" 
d="M147 1114h408v-764q200 20 328.5 173.5t128.5 371.5q0 136 -71.5 208.5t-205.5 72.5h-659l92 342h563q187 0 299 -31t197 -103q93 -78 140.5 -198.5t47.5 -274.5q0 -195 -78 -374t-219 -306q-135 -122 -297.5 -176.5t-402.5 -54.5h-271v1114z" />
    <glyph glyph-name="E" unicode="E" horiz-adv-x="1233" 
d="M1145 1180h-608v-236h555l-101 -342h-454v-260h659l-109 -342h-958v1518h924z" />
    <glyph glyph-name="F" unicode="F" horiz-adv-x="1194" 
d="M1036 1518l92 -347h-591v-233h538l-98 -350h-440v-269q0 -141 5 -212.5t17 -106.5l-352 -225q-43 64 -61.5 175.5t-18.5 340.5v1227h909z" />
    <glyph glyph-name="G" unicode="G" horiz-adv-x="1460" 
d="M1063 0q-242 0 -414.5 56t-294.5 173q-145 141 -221 318t-76 375q0 152 49 270.5t144 198.5q81 67 192 97t293 30h482l96 -347h-527q-174 0 -248.5 -65t-74.5 -215q0 -222 129.5 -369t345.5 -170v350h-162v336h555v-1038h-268z" />
    <glyph glyph-name="H" unicode="H" horiz-adv-x="1479" 
d="M537 1518v-476h407v476h408v-1518h-408v692h-407v-373q0 -141 5 -212.5t17 -106.5l-352 -225q-43 64 -61.5 175.5t-18.5 340.5v1227h410z" />
    <glyph glyph-name="I" unicode="I" horiz-adv-x="692" 
d="M137 1518h418v-1518h-418v1518z" />
    <glyph glyph-name="J" unicode="J" horiz-adv-x="868" 
d="M322 338v833h-306l99 347h614v-1180q0 -293 -133.5 -468.5t-441.5 -287.5l-160 320q184 76 256 171.5t72 264.5z" />
    <glyph glyph-name="K" unicode="K" horiz-adv-x="1407" 
d="M127 1518h410v-670l352 670h457l-373 -668l432 -850h-475l-393 823v-823h-410v1518z" />
    <glyph glyph-name="L" unicode="L" horiz-adv-x="1085" 
d="M137 1518h408v-1147h526l-104 -371h-830v1518z" />
    <glyph glyph-name="M" unicode="M" horiz-adv-x="1677" 
d="M133 1518h379l328 -508l325 508h381v-1518h-403l16 909l-319 -442l-320 442l17 -909h-404v1518z" />
    <glyph glyph-name="N" unicode="N" horiz-adv-x="1497" 
d="M545 952v-952h-408v1518h389l432 -551v551h402v-1518h-402v426z" />
    <glyph glyph-name="O" unicode="O" horiz-adv-x="1493" 
d="M469 920q0 -107 22 -213.5t64 -204.5q39 -91 89 -140t104 -49q35 0 70 22.5t61 61.5q69 107 107 240.5t38 271.5q0 154 -61.5 215.5t-214.5 61.5t-216 -60.5t-63 -205.5zM748 1536q355 0 521.5 -143t166.5 -449q0 -212 -67 -413.5t-185 -348.5q-90 -112 -198 -166.5
t-238 -54.5q-132 0 -240.5 55t-198.5 166q-119 147 -185.5 348t-66.5 414q0 305 167.5 448.5t523.5 143.5z" />
    <glyph glyph-name="P" unicode="P" horiz-adv-x="1323" 
d="M147 0v1114h404v-375q152 76 235.5 159.5t83.5 158.5q0 58 -36 88.5t-107 30.5h-651l92 342h635q226 0 352.5 -112.5t126.5 -311.5q0 -225 -185 -414t-546 -332v-348h-404z" />
    <glyph glyph-name="Q" unicode="Q" horiz-adv-x="1493" 
d="M1352 0h-496q-167 0 -261.5 24.5t-168.5 81.5q-68 53 -123 120t-96 149q-73 143 -112.5 292t-39.5 283q0 300 168.5 443t524.5 143q352 0 521 -143t169 -441q0 -153 -49.5 -306t-145.5 -300l213 4zM748 350q35 0 70 22.5t61 61.5q67 103 107 234.5t40 251.5
q0 143 -63.5 204.5t-214.5 61.5q-152 0 -216.5 -61t-64.5 -203q0 -123 39.5 -253.5t107.5 -234.5q26 -39 61.5 -61.5t72.5 -22.5z" />
    <glyph glyph-name="R" unicode="R" horiz-adv-x="1442" 
d="M147 1114h408v-1114h-408v1114zM1036 651q101 -190 210 -348t229 -285l-324 -241q-171 192 -316 424.5t-272 517.5q182 118 267 206.5t85 157.5q0 44 -30.5 68.5t-87.5 24.5h-721l92 342h711q228 0 354.5 -101.5t126.5 -283.5q0 -142 -80.5 -261t-243.5 -221z" />
    <glyph glyph-name="S" unicode="S" horiz-adv-x="1081" 
d="M1001 1171h-399q-41 0 -59.5 -12t-18.5 -39q0 -15 8.5 -31t28.5 -38l332 -371q76 -86 112.5 -167t36.5 -165q0 -83 -35 -154.5t-98 -117.5q-56 -41 -139 -58.5t-254 -17.5h-350l-100 350h442q35 0 53.5 14t18.5 42q0 11 -8.5 27.5t-22.5 33.5l-363 405q-56 64 -86 140
t-30 153q0 62 18 118t53 103q54 71 141 101.5t257 30.5h370z" />
    <glyph glyph-name="T" unicode="T" horiz-adv-x="1255" 
d="M831 0h-407v1165h-424l92 353h1073l90 -353h-424v-1165z" />
    <glyph glyph-name="U" unicode="U" horiz-adv-x="1436" 
d="M1309 1518v-1518h-478q-214 0 -310 13.5t-167 45.5q-145 65 -221 211.5t-76 362.5q0 192 65.5 410.5t201.5 474.5h424q-148 -305 -212.5 -505t-64.5 -349q0 -166 69.5 -242t221.5 -76h139v1172h408z" />
    <glyph glyph-name="V" unicode="V" horiz-adv-x="1280" 
d="M-10 1518h418l231 -1002l235 1002h416l-420 -1518h-460z" />
    <glyph glyph-name="W" unicode="W" horiz-adv-x="2015" 
d="M616 502l195 1016h393l195 -1026l186 1026h430l-399 -1518h-428l-180 834l-181 -834h-430l-397 1518h428z" />
    <glyph glyph-name="X" unicode="X" horiz-adv-x="1337" 
d="M397 795l-364 723h450l185 -443l186 443h451l-367 -723l399 -795h-450l-219 498l-217 -498h-451z" />
    <glyph glyph-name="Y" unicode="Y" horiz-adv-x="1262" 
d="M858 0l-352 -225q-43 64 -61.5 175.5t-18.5 340.5v311l-440 916h440l205 -496l203 496h442l-442 -916v-283q0 -130 5.5 -206t18.5 -113z" />
    <glyph glyph-name="Z" unicode="Z" horiz-adv-x="1276" 
d="M582 1171h-449l86 347h969l-522 -1168h505l-102 -350h-1012z" />
    <glyph glyph-name="bracketleft" unicode="[" horiz-adv-x="829" 
d="M776 1186h-250v-1092h160l90 -332h-614v1756h524z" />
    <glyph glyph-name="backslash" unicode="\" horiz-adv-x="1034" 
d="M-43 1382l225 136l946 -1575l-223 -133z" />
    <glyph glyph-name="bracketright" unicode="]" horiz-adv-x="829" 
d="M53 94h250v1092h-160l-90 332h615v-1756h-525z" />
    <glyph glyph-name="asciicircum" unicode="^" horiz-adv-x="2048" 
d="M879 1462h288l465 -563h-264l-344 342l-346 -342h-264z" />
    <glyph glyph-name="underscore" unicode="_" 
d="M0 -244h1024v-239h-1024v239z" />
    <glyph glyph-name="grave" unicode="`" 
d="M485 1509l199 -282h-178l-338 282h317z" />
    <glyph glyph-name="a" unicode="a" horiz-adv-x="1171" 
d="M596 834q-95 0 -138.5 -40.5t-43.5 -127.5q0 -130 76.5 -229.5t201.5 -129.5v527h-96zM803 0q-188 0 -315.5 41.5t-221.5 132.5q-107 104 -163 238.5t-56 287.5q0 217 120.5 328t356.5 111h533v-1139h-254z" />
    <glyph glyph-name="b" unicode="b" horiz-adv-x="1171" 
d="M115 1518h364v-379h215q218 0 328.5 -106t110.5 -314q0 -171 -62 -313t-182 -248q-96 -84 -223.5 -121t-327.5 -37h-223v1518zM479 834v-527q130 16 209.5 119t79.5 256q0 77 -40.5 114.5t-123.5 37.5h-125z" />
    <glyph glyph-name="c" unicode="c" horiz-adv-x="872" 
d="M735 0q-147 0 -264.5 43.5t-204.5 130.5q-108 107 -163.5 240t-55.5 286q0 217 120.5 328t356.5 111h217l88 -305h-233q-96 0 -139 -39.5t-43 -126.5q0 -158 107.5 -261.5t275.5 -103.5h43l-86 -303h-19z" />
    <glyph glyph-name="d" unicode="d" horiz-adv-x="1171" 
d="M575 834q-84 0 -122.5 -38.5t-38.5 -121.5q0 -149 80 -251t208 -116v527h-127zM844 0q-200 0 -328.5 37t-224.5 121q-121 106 -182.5 248t-61.5 313q0 207 111 313.5t329 106.5h215v379h365v-1518h-223z" />
    <glyph glyph-name="e" unicode="e" horiz-adv-x="1081" 
d="M420 537q127 66 195.5 132.5t68.5 123.5q0 34 -30 52.5t-85 18.5q-82 0 -130 -51.5t-48 -140.5q0 -34 7 -66.5t22 -68.5zM756 0q-154 0 -280 45.5t-218 134.5q-102 99 -156.5 234t-54.5 288q0 234 127.5 341.5t403.5 107.5q253 0 365 -74t112 -239q0 -143 -98.5 -270
t-298.5 -242q27 -12 60.5 -17.5t78.5 -5.5h198l-84 -303h-155z" />
    <glyph glyph-name="f" unicode="f" horiz-adv-x="793" 
d="M156 829h-80v310h80v20q0 192 80 275.5t266 83.5h196l90 -285h-155q-61 0 -84 -20.5t-23 -73.5v-11h207v-299h-207v-829h-370v829z" />
    <glyph glyph-name="g" unicode="g" horiz-adv-x="1176" 
d="M559 834q-71 0 -107 -40t-36 -118q0 -139 77.5 -233.5t202.5 -104.5v496h-137zM133 -76h496q51 0 69.5 16t18.5 64v16q-301 17 -485.5 206t-184.5 476q0 222 130.5 329.5t400.5 107.5h485v-1116q0 -225 -94.5 -313.5t-335.5 -88.5h-410z" />
    <glyph glyph-name="h" unicode="h" horiz-adv-x="1186" 
d="M115 1518h364v-379h164q241 0 336.5 -98t95.5 -347v-694h-364v641q0 131 -30 159.5t-112 28.5h-90v-829h-364v1518z" />
    <glyph glyph-name="i" unicode="i" horiz-adv-x="616" 
d="M123 1518h371v-299h-371v299zM123 1139h371v-1139h-371v1139z" />
    <glyph glyph-name="j" unicode="j" horiz-adv-x="631" 
d="M137 1518h371v-299h-371v299zM242 -412l-285 199q96 114 138 217t42 225v910h371v-871q0 -214 -62 -371.5t-204 -308.5z" />
    <glyph glyph-name="k" unicode="k" horiz-adv-x="1147" 
d="M115 1518h364v-883l221 504h400l-238 -508l285 -631h-406l-262 606v-606h-364v1518z" />
    <glyph glyph-name="l" unicode="l" horiz-adv-x="616" 
d="M123 1518h371v-1518h-371v1518z" />
    <glyph glyph-name="m" unicode="m" horiz-adv-x="1702" 
d="M115 1139h1040q241 0 336.5 -98t95.5 -347v-694h-358v641q0 131 -29.5 159.5t-112.5 28.5h-57v-829h-358v829h-199v-829h-358v1139z" />
    <glyph glyph-name="n" unicode="n" horiz-adv-x="1186" 
d="M115 1139h528q241 0 336.5 -98t95.5 -347v-694h-364v641q0 131 -30 159.5t-112 28.5h-90v-829h-364v1139z" />
    <glyph glyph-name="o" unicode="o" horiz-adv-x="1161" 
d="M745 680q0 84 -40 124t-123 40q-85 0 -125.5 -40.5t-40.5 -123.5q0 -51 11 -109t32 -118q27 -79 57.5 -118.5t65.5 -39.5q24 0 47.5 22.5t46.5 69.5q32 68 50.5 146t18.5 147zM582 1151q280 0 406 -100.5t126 -321.5q0 -166 -54 -323t-151 -273q-68 -82 -149 -122
t-178 -40q-99 0 -181 40.5t-149 121.5q-95 115 -150 270t-55 308q0 233 124.5 336.5t410.5 103.5z" />
    <glyph glyph-name="p" unicode="p" horiz-adv-x="1176" 
d="M479 317q128 38 204.5 135t76.5 220q0 79 -42.5 118t-127.5 39h-111v-512zM115 1139h438q142 0 220 -12t136 -40q103 -48 161 -151t58 -238q0 -257 -174.5 -446t-474.5 -252v-379h-364v1518z" />
    <glyph glyph-name="q" unicode="q" horiz-adv-x="1171" 
d="M702 0h-215q-218 0 -329 106t-111 314q0 170 61.5 311t182.5 248q95 84 224.5 122t328.5 38h223v-1518h-365v379zM575 303h127v526q-128 -15 -208 -116.5t-80 -249.5q0 -83 38.5 -121.5t122.5 -38.5z" />
    <glyph glyph-name="r" unicode="r" horiz-adv-x="786" 
d="M123 1139h371v-58q36 35 89.5 52.5t123.5 17.5h22v-317q-82 -2 -140.5 -31t-94.5 -86v-717h-371v1139z" />
    <glyph glyph-name="s" unicode="s" horiz-adv-x="834" 
d="M57 299h279q24 0 34.5 7t10.5 24q0 11 -6.5 24.5t-18.5 28.5l-190 248q-48 62 -72 122t-24 117q0 70 29.5 124.5t88.5 95.5q40 26 100 37.5t179 11.5h207l88 -299h-209q-29 0 -43 -9.5t-14 -29.5q0 -10 4 -21t10 -18l197 -254q44 -58 67 -118t23 -118q0 -139 -92 -205.5
t-287 -66.5h-271z" />
    <glyph glyph-name="t" unicode="t" horiz-adv-x="786" 
d="M537 0q-217 0 -301 81.5t-84 289.5v458h-107v310h107v202l370 109v-311h187v-310h-187v-450q0 -45 19 -62.5t69 -17.5h133l-84 -299h-122z" />
    <glyph glyph-name="u" unicode="u" horiz-adv-x="1186" 
d="M555 0q-260 0 -384 112t-124 347q0 132 48 300.5t147 379.5h364q-99 -252 -141.5 -402.5t-42.5 -242.5q0 -105 46 -146t165 -41h74v832h364v-1139h-516z" />
    <glyph glyph-name="v" unicode="v" horiz-adv-x="1124" 
d="M352 0l-352 1139h381l180 -789l180 789h383l-354 -1139h-418z" />
    <glyph glyph-name="w" unicode="w" horiz-adv-x="1745" 
d="M1204 373l150 766h377l-312 -1139h-397l-150 674l-149 -674h-397l-312 1139h381l144 -766l157 766h353z" />
    <glyph glyph-name="x" unicode="x" horiz-adv-x="1110" 
d="M313 604l-284 535h397l131 -299l131 299h397l-284 -539l313 -600h-407l-150 334l-149 -334h-408z" />
    <glyph glyph-name="y" unicode="y" horiz-adv-x="1124" 
d="M385 115l-399 1024h415l170 -568l189 568h379l-551 -1518h-383z" />
    <glyph glyph-name="z" unicode="z" horiz-adv-x="985" 
d="M416 834h-332l88 305h782l-387 -836h359l-95 -303h-802z" />
    <glyph glyph-name="braceleft" unicode="{" 
d="M893 1477v-242q-7 0 -21 1t-20 1q-98 0 -132 -35.5t-34 -146.5v-240q0 -140 -46 -200t-165 -85q120 -24 165.5 -82.5t45.5 -199.5v-242q0 -110 33.5 -145t130.5 -35q7 0 21.5 1t21.5 1v-242q-15 0 -42 -1t-40 -1q-108 0 -179.5 12t-119.5 37q-59 32 -82.5 88.5
t-23.5 192.5v256q0 133 -49.5 187.5t-168.5 54.5q-4 0 -17 -1t-19 -1v241q6 0 18 -1t18 -1q118 0 168 55.5t50 188.5v254q0 136 24 193.5t82 89.5q48 25 120.5 37t180.5 12q12 0 38.5 -1t41.5 -1z" />
    <glyph glyph-name="bar" unicode="|" 
d="M393 1565h240v-2048h-240v2048z" />
    <glyph glyph-name="braceright" unicode="}" 
d="M133 1477q15 0 41.5 1t38.5 1q108 0 180 -12t121 -37q58 -32 82.5 -89.5t24.5 -193.5v-254q0 -134 49 -189t168 -55q6 0 18 1t18 1v-241q-6 0 -18 1t-18 1q-119 0 -168 -55t-49 -187v-256q0 -137 -24.5 -194.5t-82.5 -88.5q-45 -24 -113.5 -35.5t-177.5 -11.5
q-14 0 -44 1t-46 1v242q9 0 23 -1t20 -1q97 0 130.5 34.5t33.5 145.5v242q0 140 46 199t165 83q-120 25 -165.5 84t-45.5 201v240q0 111 -33.5 146.5t-126.5 35.5q-7 0 -22.5 -1t-24.5 -1v242z" />
    <glyph glyph-name="asciitilde" unicode="~" horiz-adv-x="1706" 
d="M1530 819v-254q-101 -69 -194 -103t-183 -34q-45 0 -89 7.5t-83 21.5q-13 4 -38 13q-255 89 -382 89q-84 0 -175.5 -37.5t-207.5 -120.5v254q112 73 207.5 108.5t179.5 35.5q63 0 126.5 -12t169.5 -46q16 -5 51 -17q159 -56 247 -56q84 0 173.5 36t197.5 115z" />
    <glyph glyph-name="Adieresis" unicode="&#xc4;" horiz-adv-x="1442" 
d="M1030 1518h244l92 -342h-309q-222 0 -352.5 -82.5t-196.5 -264.5h387v285h410v-1114h-410v479h-428q6 -124 45 -243.5t111 -235.5l-324 -213q-122 187 -183 375.5t-61 380.5q0 217 72.5 408t204.5 323q123 123 295.5 183.5t402.5 60.5zM1126 1884v-262h-244v262h244z
M772 1884v-262h-244v262h244z" />
    <glyph glyph-name="Aring" unicode="&#xc5;" horiz-adv-x="1442" 
d="M1008 1741q0 38 -24.5 63t-61.5 25t-62.5 -25.5t-25.5 -62.5q0 -35 25.5 -59.5t62.5 -24.5q36 0 61 24t25 60zM911 1513q-99 11 -159 74.5t-60 157.5q0 95 67 161t163 66q95 0 161 -66t66 -161q0 -86 -53 -148.5t-142 -80.5q25 0 50.5 1l25.5 1h244l92 -342h-309
q-222 0 -352.5 -82.5t-196.5 -264.5h387v285h410v-1114h-410v479h-428q6 -124 45 -243.5t111 -235.5l-324 -213q-122 187 -183 375.5t-61 380.5q0 273 111 497t305 342q95 59 204.5 91.5t235.5 39.5z" />
    <glyph glyph-name="Ccedilla" unicode="&#xc7;" horiz-adv-x="1147" 
d="M971 0q-194 0 -340 50t-264 157q-148 132 -229 318.5t-81 394.5q0 153 49 272t144 199q81 67 192 97t293 30h236l98 -347h-283q-174 0 -248.5 -64.5t-74.5 -213.5q0 -255 160.5 -403t439.5 -148h31l-103 -342h-20zM633 -221l39 137h75q125 0 186.5 -48t61.5 -144
q0 -100 -66 -154.5t-188 -54.5q-58 0 -130 11.5t-161 35.5l43 139q78 -19 130.5 -28t91.5 -9q40 0 59.5 15.5t19.5 46.5q0 28 -27.5 41.5t-86.5 13.5q-7 0 -23 -1t-24 -1z" />
    <glyph glyph-name="Eacute" unicode="&#xc9;" horiz-adv-x="1233" 
d="M1145 1180h-608v-236h555l-101 -342h-454v-260h659l-109 -342h-958v1518h924zM950 1894l-336 -282h-178l199 282h315z" />
    <glyph glyph-name="Ntilde" unicode="&#xd1;" horiz-adv-x="1497" 
d="M545 952v-952h-408v1518h389l432 -551v551h402v-1518h-402v426zM1061 1882q-20 -113 -76 -175t-137 -62q-16 0 -31 2t-29 6l-127 37q-6 2 -13.5 3t-23.5 1q-34 0 -55 -17.5t-29 -52.5h-123q23 116 75 173.5t132 57.5q16 0 32.5 -2.5t35.5 -7.5l120 -32q12 -4 22.5 -5.5
t21.5 -1.5q34 0 54 19t28 57h123z" />
    <glyph glyph-name="Odieresis" unicode="&#xd6;" horiz-adv-x="1493" 
d="M469 920q0 -107 22 -213.5t64 -204.5q39 -91 89 -140t104 -49q35 0 70 22.5t61 61.5q69 107 107 240.5t38 271.5q0 154 -61.5 215.5t-214.5 61.5t-216 -60.5t-63 -205.5zM748 1536q355 0 521.5 -143t166.5 -449q0 -212 -67 -413.5t-185 -348.5q-90 -112 -198 -166.5
t-238 -54.5q-132 0 -240.5 55t-198.5 166q-119 147 -185.5 348t-66.5 414q0 305 167.5 448.5t523.5 143.5zM1036 1884v-262h-244v262h244zM682 1884v-262h-244v262h244z" />
    <glyph glyph-name="Udieresis" unicode="&#xdc;" horiz-adv-x="1436" 
d="M1309 1518v-1518h-478q-214 0 -310 13.5t-167 45.5q-145 65 -221 211.5t-76 362.5q0 192 65.5 410.5t201.5 474.5h424q-148 -305 -212.5 -505t-64.5 -349q0 -166 69.5 -242t221.5 -76h139v1172h408zM1110 1884v-262h-244v262h244zM756 1884v-262h-244v262h244z" />
    <glyph glyph-name="aacute" unicode="&#xe1;" horiz-adv-x="1171" 
d="M596 834q-95 0 -138.5 -40.5t-43.5 -127.5q0 -130 76.5 -229.5t201.5 -129.5v527h-96zM803 0q-188 0 -315.5 41.5t-221.5 132.5q-107 104 -163 238.5t-56 287.5q0 217 120.5 328t356.5 111h533v-1139h-254zM995 1509l-336 -282h-178l199 282h315z" />
    <glyph glyph-name="agrave" unicode="&#xe0;" horiz-adv-x="1171" 
d="M596 834q-95 0 -138.5 -40.5t-43.5 -127.5q0 -130 76.5 -229.5t201.5 -129.5v527h-96zM803 0q-188 0 -315.5 41.5t-221.5 132.5q-107 104 -163 238.5t-56 287.5q0 217 120.5 328t356.5 111h533v-1139h-254zM624 1509l199 -282h-178l-338 282h317z" />
    <glyph glyph-name="acircumflex" unicode="&#xe2;" horiz-adv-x="1171" 
d="M596 834q-95 0 -138.5 -40.5t-43.5 -127.5q0 -130 76.5 -229.5t201.5 -129.5v527h-96zM803 0q-188 0 -315.5 41.5t-221.5 132.5q-107 104 -163 238.5t-56 287.5q0 217 120.5 328t356.5 111h533v-1139h-254zM522 1509h256l199 -282h-162l-164 139l-162 -139h-164z" />
    <glyph glyph-name="adieresis" unicode="&#xe4;" horiz-adv-x="1171" 
d="M596 834q-95 0 -138.5 -40.5t-43.5 -127.5q0 -130 76.5 -229.5t201.5 -129.5v527h-96zM803 0q-188 0 -315.5 41.5t-221.5 132.5q-107 104 -163 238.5t-56 287.5q0 217 120.5 328t356.5 111h533v-1139h-254zM950 1499v-262h-244v262h244zM596 1499v-262h-244v262h244z" />
    <glyph glyph-name="atilde" unicode="&#xe3;" horiz-adv-x="1171" 
d="M596 834q-95 0 -138.5 -40.5t-43.5 -127.5q0 -130 76.5 -229.5t201.5 -129.5v527h-96zM803 0q-188 0 -315.5 41.5t-221.5 132.5q-107 104 -163 238.5t-56 287.5q0 217 120.5 328t356.5 111h533v-1139h-254zM973 1497q-20 -113 -76 -175t-137 -62q-16 0 -31 2t-29 6
l-127 37q-6 2 -13.5 3t-23.5 1q-34 0 -55 -17.5t-29 -52.5h-123q23 116 75 173.5t132 57.5q16 0 32.5 -2.5t35.5 -7.5l120 -32q12 -4 22.5 -5.5t21.5 -1.5q34 0 54 19t28 57h123z" />
    <glyph glyph-name="aring" unicode="&#xe5;" horiz-adv-x="1171" 
d="M786 1432q0 38 -24 63t-62 25q-36 0 -62 -26t-26 -62t26 -61t62 -25q37 0 61.5 25t24.5 61zM700 1663q95 0 161.5 -67.5t66.5 -161.5q0 -97 -66 -163.5t-162 -66.5q-95 0 -162 66.5t-67 163.5q0 95 67 162t162 67zM596 834q-95 0 -138.5 -40.5t-43.5 -127.5
q0 -130 76.5 -229.5t201.5 -129.5v527h-96zM803 0q-188 0 -315.5 41.5t-221.5 132.5q-107 104 -163 238.5t-56 287.5q0 217 120.5 328t356.5 111h533v-1139h-254z" />
    <glyph glyph-name="ccedilla" unicode="&#xe7;" horiz-adv-x="872" 
d="M735 0q-147 0 -264.5 43.5t-204.5 130.5q-108 107 -163.5 240t-55.5 286q0 217 120.5 328t356.5 111h217l88 -305h-233q-96 0 -139 -39.5t-43 -126.5q0 -158 107.5 -261.5t275.5 -103.5h43l-86 -303h-19zM439 -221l39 137h75q125 0 186.5 -48t61.5 -144
q0 -100 -66 -154.5t-188 -54.5q-58 0 -130 11.5t-161 35.5l43 139q78 -19 130.5 -28t91.5 -9q40 0 59.5 15.5t19.5 46.5q0 28 -27.5 41.5t-86.5 13.5q-7 0 -23 -1t-24 -1z" />
    <glyph glyph-name="eacute" unicode="&#xe9;" horiz-adv-x="1081" 
d="M420 537q127 66 195.5 132.5t68.5 123.5q0 34 -30 52.5t-85 18.5q-82 0 -130 -51.5t-48 -140.5q0 -34 7 -66.5t22 -68.5zM756 0q-154 0 -280 45.5t-218 134.5q-102 99 -156.5 234t-54.5 288q0 234 127.5 341.5t403.5 107.5q253 0 365 -74t112 -239q0 -143 -98.5 -270
t-298.5 -242q27 -12 60.5 -17.5t78.5 -5.5h198l-84 -303h-155zM913 1509l-336 -282h-178l199 282h315z" />
    <glyph glyph-name="egrave" unicode="&#xe8;" horiz-adv-x="1081" 
d="M420 537q127 66 195.5 132.5t68.5 123.5q0 34 -30 52.5t-85 18.5q-82 0 -130 -51.5t-48 -140.5q0 -34 7 -66.5t22 -68.5zM756 0q-154 0 -280 45.5t-218 134.5q-102 99 -156.5 234t-54.5 288q0 234 127.5 341.5t403.5 107.5q253 0 365 -74t112 -239q0 -143 -98.5 -270
t-298.5 -242q27 -12 60.5 -17.5t78.5 -5.5h198l-84 -303h-155zM542 1509l199 -282h-178l-338 282h317z" />
    <glyph glyph-name="ecircumflex" unicode="&#xea;" horiz-adv-x="1081" 
d="M420 537q127 66 195.5 132.5t68.5 123.5q0 34 -30 52.5t-85 18.5q-82 0 -130 -51.5t-48 -140.5q0 -34 7 -66.5t22 -68.5zM756 0q-154 0 -280 45.5t-218 134.5q-102 99 -156.5 234t-54.5 288q0 234 127.5 341.5t403.5 107.5q253 0 365 -74t112 -239q0 -143 -98.5 -270
t-298.5 -242q27 -12 60.5 -17.5t78.5 -5.5h198l-84 -303h-155zM440 1509h256l199 -282h-162l-164 139l-162 -139h-164z" />
    <glyph glyph-name="edieresis" unicode="&#xeb;" horiz-adv-x="1081" 
d="M420 537q127 66 195.5 132.5t68.5 123.5q0 34 -30 52.5t-85 18.5q-82 0 -130 -51.5t-48 -140.5q0 -34 7 -66.5t22 -68.5zM756 0q-154 0 -280 45.5t-218 134.5q-102 99 -156.5 234t-54.5 288q0 234 127.5 341.5t403.5 107.5q253 0 365 -74t112 -239q0 -143 -98.5 -270
t-298.5 -242q27 -12 60.5 -17.5t78.5 -5.5h198l-84 -303h-155zM868 1499v-262h-244v262h244zM514 1499v-262h-244v262h244z" />
    <glyph glyph-name="iacute" unicode="&#xed;" horiz-adv-x="616" 
d="M123 1139h371v-1139h-371v1139zM653 1509l-336 -282h-178l199 282h315z" />
    <glyph glyph-name="igrave" unicode="&#xec;" horiz-adv-x="616" 
d="M123 1139h371v-1139h-371v1139zM282 1509l199 -282h-178l-338 282h317z" />
    <glyph glyph-name="icircumflex" unicode="&#xee;" horiz-adv-x="616" 
d="M123 1139h371v-1139h-371v1139zM180 1509h256l199 -282h-162l-164 139l-162 -139h-164z" />
    <glyph glyph-name="idieresis" unicode="&#xef;" horiz-adv-x="616" 
d="M123 1139h371v-1139h-371v1139zM608 1499v-262h-244v262h244zM254 1499v-262h-244v262h244z" />
    <glyph glyph-name="ntilde" unicode="&#xf1;" horiz-adv-x="1186" 
d="M115 1139h528q241 0 336.5 -98t95.5 -347v-694h-364v641q0 131 -30 159.5t-112 28.5h-90v-829h-364v1139zM916 1497q-20 -113 -76 -175t-137 -62q-16 0 -31 2t-29 6l-127 37q-6 2 -13.5 3t-23.5 1q-34 0 -55 -17.5t-29 -52.5h-123q23 116 75 173.5t132 57.5
q16 0 32.5 -2.5t35.5 -7.5l120 -32q12 -4 22.5 -5.5t21.5 -1.5q34 0 54 19t28 57h123z" />
    <glyph glyph-name="oacute" unicode="&#xf3;" horiz-adv-x="1161" 
d="M745 680q0 84 -40 124t-123 40q-85 0 -125.5 -40.5t-40.5 -123.5q0 -51 11 -109t32 -118q27 -79 57.5 -118.5t65.5 -39.5q24 0 47.5 22.5t46.5 69.5q32 68 50.5 146t18.5 147zM582 1151q280 0 406 -100.5t126 -321.5q0 -166 -54 -323t-151 -273q-68 -82 -149 -122
t-178 -40q-99 0 -181 40.5t-149 121.5q-95 115 -150 270t-55 308q0 233 124.5 336.5t410.5 103.5zM926 1509l-336 -282h-178l199 282h315z" />
    <glyph glyph-name="ograve" unicode="&#xf2;" horiz-adv-x="1161" 
d="M745 680q0 84 -40 124t-123 40q-85 0 -125.5 -40.5t-40.5 -123.5q0 -51 11 -109t32 -118q27 -79 57.5 -118.5t65.5 -39.5q24 0 47.5 22.5t46.5 69.5q32 68 50.5 146t18.5 147zM582 1151q280 0 406 -100.5t126 -321.5q0 -166 -54 -323t-151 -273q-68 -82 -149 -122
t-178 -40q-99 0 -181 40.5t-149 121.5q-95 115 -150 270t-55 308q0 233 124.5 336.5t410.5 103.5zM555 1509l199 -282h-178l-338 282h317z" />
    <glyph glyph-name="ocircumflex" unicode="&#xf4;" horiz-adv-x="1161" 
d="M745 680q0 84 -40 124t-123 40q-85 0 -125.5 -40.5t-40.5 -123.5q0 -51 11 -109t32 -118q27 -79 57.5 -118.5t65.5 -39.5q24 0 47.5 22.5t46.5 69.5q32 68 50.5 146t18.5 147zM582 1151q280 0 406 -100.5t126 -321.5q0 -166 -54 -323t-151 -273q-68 -82 -149 -122
t-178 -40q-99 0 -181 40.5t-149 121.5q-95 115 -150 270t-55 308q0 233 124.5 336.5t410.5 103.5zM453 1509h256l199 -282h-162l-164 139l-162 -139h-164z" />
    <glyph glyph-name="odieresis" unicode="&#xf6;" horiz-adv-x="1161" 
d="M745 680q0 84 -40 124t-123 40q-85 0 -125.5 -40.5t-40.5 -123.5q0 -51 11 -109t32 -118q27 -79 57.5 -118.5t65.5 -39.5q24 0 47.5 22.5t46.5 69.5q32 68 50.5 146t18.5 147zM582 1151q280 0 406 -100.5t126 -321.5q0 -166 -54 -323t-151 -273q-68 -82 -149 -122
t-178 -40q-99 0 -181 40.5t-149 121.5q-95 115 -150 270t-55 308q0 233 124.5 336.5t410.5 103.5zM881 1499v-262h-244v262h244zM527 1499v-262h-244v262h244z" />
    <glyph glyph-name="otilde" unicode="&#xf5;" horiz-adv-x="1161" 
d="M745 680q0 84 -40 124t-123 40q-85 0 -125.5 -40.5t-40.5 -123.5q0 -51 11 -109t32 -118q27 -79 57.5 -118.5t65.5 -39.5q24 0 47.5 22.5t46.5 69.5q32 68 50.5 146t18.5 147zM582 1151q280 0 406 -100.5t126 -321.5q0 -166 -54 -323t-151 -273q-68 -82 -149 -122
t-178 -40q-99 0 -181 40.5t-149 121.5q-95 115 -150 270t-55 308q0 233 124.5 336.5t410.5 103.5zM904 1497q-20 -113 -76 -175t-137 -62q-16 0 -31 2t-29 6l-127 37q-6 2 -13.5 3t-23.5 1q-34 0 -55 -17.5t-29 -52.5h-123q23 116 75 173.5t132 57.5q16 0 32.5 -2.5
t35.5 -7.5l120 -32q12 -4 22.5 -5.5t21.5 -1.5q34 0 54 19t28 57h123z" />
    <glyph glyph-name="uacute" unicode="&#xfa;" horiz-adv-x="1186" 
d="M555 0q-260 0 -384 112t-124 347q0 132 48 300.5t147 379.5h364q-99 -252 -141.5 -402.5t-42.5 -242.5q0 -105 46 -146t165 -41h74v832h364v-1139h-516zM1016 1509l-336 -282h-178l199 282h315z" />
    <glyph glyph-name="ugrave" unicode="&#xf9;" horiz-adv-x="1186" 
d="M555 0q-260 0 -384 112t-124 347q0 132 48 300.5t147 379.5h364q-99 -252 -141.5 -402.5t-42.5 -242.5q0 -105 46 -146t165 -41h74v832h364v-1139h-516zM645 1509l199 -282h-178l-338 282h317z" />
    <glyph glyph-name="ucircumflex" unicode="&#xfb;" horiz-adv-x="1186" 
d="M555 0q-260 0 -384 112t-124 347q0 132 48 300.5t147 379.5h364q-99 -252 -141.5 -402.5t-42.5 -242.5q0 -105 46 -146t165 -41h74v832h364v-1139h-516zM543 1509h256l199 -282h-162l-164 139l-162 -139h-164z" />
    <glyph glyph-name="udieresis" unicode="&#xfc;" horiz-adv-x="1186" 
d="M555 0q-260 0 -384 112t-124 347q0 132 48 300.5t147 379.5h364q-99 -252 -141.5 -402.5t-42.5 -242.5q0 -105 46 -146t165 -41h74v832h364v-1139h-516zM971 1499v-262h-244v262h244zM617 1499v-262h-244v262h244z" />
    <glyph glyph-name="dagger" unicode="&#x2020;" 
d="M694 1100h303v-283h-303v-1055h-364v1055h-303v283h303v418h364v-418z" />
    <glyph glyph-name="degree" unicode="&#xb0;" horiz-adv-x="674" 
d="M338 1321q-69 0 -117.5 -48t-48.5 -116q0 -70 48 -118t118 -48q68 0 116 49t48 117t-48 116t-116 48zM338 1466q129 0 220 -91t91 -220q0 -128 -91.5 -219.5t-221.5 -91.5q-129 0 -219 90.5t-90 220.5q0 131 90.5 221t220.5 90z" />
    <glyph glyph-name="cent" unicode="&#xa2;" horiz-adv-x="1366" 
d="M983 203h-68q-20 0 -41.5 1.5t-43.5 4.5l-1 -209h-331v338q-128 88 -199.5 237.5t-71.5 329.5q0 161 72.5 269.5t198.5 138.5v205h331v-177h144l86 -303h-283q-95 0 -138.5 -40t-43.5 -128q0 -157 107.5 -260.5t275.5 -103.5h92z" />
    <glyph glyph-name="sterling" unicode="&#xa3;" horiz-adv-x="1366" 
d="M272 594h-106v352h106v168q0 221 102.5 312.5t358.5 91.5h375l96 -347h-418q-64 0 -87 -22t-23 -82v-121h350v-352h-350v-240h600l-105 -354h-899v594z" />
    <glyph glyph-name="section" unicode="&#xa7;" 
d="M549 469q74 19 116 52.5t42 72.5q0 28 -13.5 51.5t-46.5 50.5l-153 133q-77 -19 -117.5 -53t-40.5 -78q0 -24 14 -46.5t45 -49.5zM918 1249h-300q-33 0 -49 -10t-16 -31q0 -10 6 -24t13 -19l341 -297q49 -42 74 -100.5t25 -130.5q0 -111 -73.5 -197.5t-205.5 -132.5
l60 -51q51 -47 74.5 -99.5t23.5 -121.5q0 -140 -92 -206.5t-287 -66.5h-307l-82 265h344q27 0 39 8t12 26q0 15 -7 29t-22 27l-370 317q-51 43 -79 105.5t-28 132.5q0 111 76 188t231 123l-45 41q-59 53 -84.5 105.5t-25.5 119.5q0 69 29.5 124t89.5 95q39 27 99.5 38.5
t178.5 11.5h279z" />
    <glyph glyph-name="bullet" unicode="&#x2022;" horiz-adv-x="1208" 
d="M307 762q0 123 87 209t210 86q122 0 208.5 -86.5t86.5 -208.5t-87.5 -209.5t-209.5 -87.5q-123 0 -209 87t-86 210z" />
    <glyph glyph-name="paragraph" unicode="&#xb6;" 
d="M997 1479v-123h-106v-1356h-176v1356h-150v-1356h-174v784q-164 6 -263 101t-99 245q0 158 106 253.5t283 95.5h579z" />
    <glyph glyph-name="germandbls" unicode="&#xdf;" horiz-adv-x="1251" 
d="M123 1114q0 231 110.5 326.5t376.5 95.5q250 0 371 -82.5t121 -253.5q0 -83 -41.5 -173t-122.5 -183q123 -121 183.5 -246.5t60.5 -257.5q0 -177 -99 -258.5t-315 -81.5h-137l-94 303h125q83 0 116 18.5t33 63.5q0 65 -77.5 181t-215.5 253q109 101 167 184.5t58 139.5
q0 42 -31.5 65t-88.5 23q-78 0 -107 -32.5t-29 -160.5v-1038h-364v1114z" />
    <glyph glyph-name="registered" unicode="&#xae;" horiz-adv-x="1706" 
d="M762 1022v-219h80q74 0 110.5 26.5t36.5 79.5q0 59 -38 86t-122 27h-67zM537 1163h329q174 0 264.5 -60t90.5 -177q0 -81 -46 -139t-128 -82l182 -361h-248l-154 326h-65v-326h-225v819zM854 1350q-124 0 -232 -44t-194 -128q-90 -90 -137 -203t-47 -238q0 -121 44 -229
t130 -195q87 -90 199 -138t235 -48q121 0 232.5 45.5t199.5 130.5t134 196.5t46 237.5q0 124 -44 233.5t-128 194.5q-89 91 -200.5 138t-237.5 47zM852 1485q156 0 294 -57.5t245 -167.5q101 -104 154.5 -238t53.5 -285q0 -155 -56.5 -291t-164.5 -239q-109 -105 -245 -161
t-281 -56q-151 0 -287 58t-243 169q-105 108 -160.5 241.5t-55.5 278.5q0 151 59 290t169 247q105 104 237 157.5t281 53.5z" />
    <glyph glyph-name="copyright" unicode="&#xa9;" horiz-adv-x="1706" 
d="M1221 891h-213q-7 67 -47.5 104t-108.5 37q-83 0 -129.5 -77t-46.5 -216q0 -140 47.5 -212t138.5 -72q67 0 106.5 40.5t45.5 114.5h215q-6 -143 -107.5 -230t-263.5 -87q-190 0 -301 117.5t-111 320.5q0 207 111 329t299 122q157 0 257 -80t108 -211zM854 1350
q-126 0 -235 -45.5t-195 -133.5q-88 -89 -135 -201t-47 -233q0 -119 47 -230.5t135 -199.5q87 -87 198 -133.5t232 -46.5t234 47t202 135q86 84 130 193t44 235q0 125 -45 235.5t-131 196.5q-88 89 -198.5 135t-235.5 46zM852 1485q154 0 289.5 -56t242.5 -163
q106 -106 160.5 -240.5t54.5 -288.5q0 -153 -54 -287t-159 -237q-109 -108 -247 -165.5t-287 -57.5q-148 0 -283.5 57t-242.5 164t-163.5 241.5t-56.5 284.5q0 148 57.5 285t164.5 246q105 106 238 161.5t286 55.5z" />
    <glyph glyph-name="trademark" unicode="&#x2122;" horiz-adv-x="1706" 
d="M797 1464h223l113 -303l114 303h221v-551h-155v390l-146 -390h-65l-150 390v-390h-155v551zM188 1464h502v-127h-164v-424h-174v424h-164v127z" />
    <glyph glyph-name="acute" unicode="&#xb4;" 
d="M856 1509l-336 -282h-178l199 282h315z" />
    <glyph glyph-name="dieresis" unicode="&#xa8;" 
d="M811 1499v-262h-244v262h244zM457 1499v-262h-244v262h244z" />
    <glyph glyph-name="notequal" unicode="&#x2260;" horiz-adv-x="1706" 
d="M1194 1251l168 -137l-135 -168h225v-221h-377l-180 -227h557v-222h-704l-246 -307l-170 137l135 170h-213v222h360l183 227h-543v221h694z" />
    <glyph glyph-name="AE" unicode="&#xc6;" horiz-adv-x="2001" 
d="M1030 1518h791l92 -347h-856q-192 0 -315 -58t-185 -179h338v170h410v-170h550l-96 -332h-454v-252h659l-111 -350h-958v602h-434v-39q0 -153 40.5 -294t121.5 -269l-324 -213q-122 187 -183 375.5t-61 380.5q0 217 72.5 408t204.5 323q123 123 295.5 183.5t402.5 60.5z
" />
    <glyph glyph-name="Oslash" unicode="&#xd8;" horiz-adv-x="1493" 
d="M-6 117l203 241q-70 149 -105 292.5t-35 283.5q0 313 165 457.5t526 144.5q134 0 227.5 -14.5t159.5 -44.5l129 153l264 -223l-148 -172q28 -61 42 -134t14 -157q0 -212 -67 -413.5t-185 -348.5q-90 -112 -198 -166.5t-238 -54.5q-97 0 -181 29t-155 86l-154 -182z
M469 920q0 -107 22 -213.5t64 -204.5q39 -91 89 -140t104 -49q35 0 70 22.5t61 61.5q69 107 107 240.5t38 271.5q0 154 -61.5 215.5t-214.5 61.5t-216 -60.5t-63 -205.5z" />
    <glyph glyph-name="infinity" unicode="&#x221e;" horiz-adv-x="1706" 
d="M956 561q43 -67 102 -101t132 -34q90 0 146.5 50.5t56.5 129.5q0 77 -51.5 127.5t-127.5 50.5q-72 0 -131.5 -50.5t-126.5 -172.5zM752 657q-43 67 -101 100.5t-133 33.5q-90 0 -146.5 -50t-56.5 -129q0 -77 51 -127.5t128 -50.5q71 0 132 52.5t126 170.5zM856 442
q-68 -130 -147.5 -193t-176.5 -63q-139 0 -238 121.5t-99 300.5q0 188 87.5 305t227.5 117q90 0 166.5 -56.5t175.5 -199.5q71 132 150 195t174 63q140 0 238.5 -121t98.5 -301q0 -189 -87.5 -306.5t-227.5 -117.5q-91 0 -166 55t-176 201z" />
    <glyph glyph-name="plusminus" unicode="&#xb1;" horiz-adv-x="1706" 
d="M254 213h1198v-231h-1198v231zM735 1241h238v-319h479v-232h-479v-319h-238v319h-481v232h481v319z" />
    <glyph glyph-name="lessequal" unicode="&#x2264;" horiz-adv-x="1706" 
d="M256 213h1196v-229h-1196v229zM1450 1257v-239l-776 -240l776 -239v-240l-1194 379v201z" />
    <glyph glyph-name="greaterequal" unicode="&#x2265;" horiz-adv-x="1706" 
d="M256 213h1196v-229h-1196v229zM258 1257l1192 -378v-201l-1192 -379v240l776 239l-776 240v239z" />
    <glyph glyph-name="yen" unicode="&#xa5;" horiz-adv-x="1309" 
d="M848 0h-387v602h-451v191h359l-78 151h-281v189h189l-189 385h445l198 -469l203 469h442l-188 -385h188v-189h-282l-76 -151h358v-191h-450v-602z" />
    <glyph glyph-name="mu" unicode="&#xb5;" horiz-adv-x="1315" 
d="M193 1090h358l-80 -529q-6 -41 -9 -77.5t-3 -65.5q0 -85 35.5 -127.5t107.5 -42.5q88 0 138.5 68.5t74.5 220.5l88 553h357l-175 -1090h-321l18 125q-40 -75 -89.5 -108t-119.5 -33q-59 0 -106.5 31t-77.5 89l-82 -532h-352z" />
    <glyph glyph-name="partialdiff" unicode="&#x2202;" horiz-adv-x="1114" 
d="M766 684q21 113 32 206t11 150q0 87 -29.5 148t-68.5 61q-35 0 -132 -93t-180 -93q-48 0 -80 33.5t-32 83.5q0 69 93 125.5t220 56.5q210 0 332.5 -161t122.5 -441q0 -344 -162.5 -564.5t-417.5 -220.5q-182 0 -299 116.5t-117 299.5q0 203 119.5 336t298.5 133
q101 0 170.5 -42.5t118.5 -133.5zM698 532q0 114 -36.5 176t-104.5 62q-96 0 -160.5 -136.5t-64.5 -346.5q0 -116 36.5 -176t106.5 -60q97 0 160 135.5t63 345.5z" />
    <glyph glyph-name="summation" unicode="&#x2211;" horiz-adv-x="1520" 
d="M72 1473h1335v-302h-838l596 -608l-587 -651h895v-305h-1424v184l684 756l-661 665v261z" />
    <glyph glyph-name="product" unicode="&#x220f;" horiz-adv-x="1645" 
d="M145 1473h1348v-1866h-399v1532h-549v-1532h-400v1866z" />
    <glyph glyph-name="pi" unicode="&#x3c0;" horiz-adv-x="1530" 
d="M1538 1090l-39 -232h-178l-135 -858h-357l134 858h-232l-135 -858h-354l133 858h-27q-42 0 -70.5 -35.5t-36.5 -97.5h-235q33 209 124.5 287t311.5 78h1096z" />
    <glyph glyph-name="integral" unicode="&#x222b;" horiz-adv-x="1249" 
d="M362 -248q99 0 119 667q3 101 4 154q17 523 130.5 753t349.5 230q105 0 170 -53t65 -137q0 -64 -41 -103.5t-106 -39.5q-64 0 -96.5 38.5t-32.5 112.5q0 38 -7.5 49t-25.5 11q-101 0 -124 -667l-3 -91q-11 -329 -30.5 -472.5t-57.5 -244.5q-62 -166 -159.5 -249
t-229.5 -83q-107 0 -171.5 52t-64.5 139q0 65 42 104t112 39q60 0 92.5 -36t32.5 -103q0 -12 -2 -24v-3q0 -24 8 -33.5t26 -9.5z" />
    <glyph glyph-name="ordfeminine" unicode="&#xaa;" horiz-adv-x="879" 
d="M446 1305q-70 0 -102.5 -28.5t-32.5 -88.5q0 -93 57 -162t152 -90v369h-74zM602 721q-141 0 -236 29t-165 94q-82 72 -124 165.5t-42 200.5q0 152 90.5 230t267.5 78h400v-797h-191z" />
    <glyph glyph-name="ordmasculine" unicode="&#xba;" horiz-adv-x="870" 
d="M559 1196q0 59 -30 87t-93 28t-94 -28.5t-31 -86.5q0 -34 8.5 -73.5t24.5 -84.5q21 -55 44 -82.5t48 -27.5q18 0 35.5 15.5t36.5 47.5q24 50 37.5 104t13.5 101zM436 1526q211 0 305.5 -70t94.5 -225q0 -118 -40.5 -227.5t-113.5 -188.5q-50 -58 -111 -86.5t-135 -28.5
t-135.5 28.5t-112.5 86.5q-71 81 -112 189t-41 215q0 163 93 235t308 72z" />
    <glyph glyph-name="Omega" unicode="&#x3a9;" horiz-adv-x="1645" 
d="M1266 307h333v-307h-636v352q92 82 142 196.5t50 246.5q0 182 -90 288.5t-244 106.5q-153 0 -243.5 -107.5t-90.5 -289.5q0 -132 50 -246.5t143 -194.5v-352h-635v307h332q-132 95 -200 229.5t-68 299.5q0 303 195.5 489t516.5 186q323 0 518 -185t195 -490
q0 -165 -68 -299.5t-200 -229.5z" />
    <glyph glyph-name="ae" unicode="&#xe6;" horiz-adv-x="1694" 
d="M1036 518q126 69 192 135t66 123q0 33 -29 51.5t-83 18.5q-84 0 -129 -51t-45 -146q0 -37 7 -69.5t21 -61.5zM596 834q-95 0 -138.5 -40.5t-43.5 -127.5q0 -130 76.5 -229.5t201.5 -129.5v527h-96zM1282 319q32 -8 63 -12t64 -4h199l-84 -303h-156q-123 0 -209.5 25
t-150.5 79v-104h-205q-188 0 -315.5 41.5t-221.5 132.5q-107 104 -163 238.5t-56 287.5q0 217 120.5 328t356.5 111h666q252 0 364.5 -75t112.5 -241q0 -139 -95 -263.5t-290 -240.5z" />
    <glyph glyph-name="oslash" unicode="&#xf8;" horiz-adv-x="1161" 
d="M158 276q-56 116 -83.5 224.5t-27.5 210.5q0 234 124 337t411 103q110 0 190.5 -12t128.5 -35l96 104l187 -166l-109 -120q19 -47 29 -99t10 -108q0 -155 -55 -311t-150 -271q-68 -82 -149 -122t-178 -40q-77 0 -144.5 24.5t-126.5 74.5l-110 -119l-185 168zM416 680
q0 -50 10.5 -107.5t30.5 -115.5q30 -84 60 -123t65 -39q24 0 47.5 22.5t46.5 69.5q32 68 50.5 146t18.5 147q0 84 -40 124t-123 40q-85 0 -125.5 -40.5t-40.5 -123.5z" />
    <glyph glyph-name="questiondown" unicode="&#xbf;" horiz-adv-x="1110" 
d="M893 1018q0 -82 -19 -123.5t-69 -85.5l-213 -186q-62 -55 -87.5 -95.5t-25.5 -81.5q0 -52 38 -76t120 -24h430l-90 -346h-418q-238 0 -372 113.5t-134 312.5q0 125 64 238t200 229l115 98q7 7 20 18q42 34 42 64v4h399v-59zM487 1518h410v-357h-410v357z" />
    <glyph glyph-name="exclamdown" unicode="&#xa1;" horiz-adv-x="692" 
d="M147 1077h398v-1077h-398v1077zM147 1161v357h398v-357h-398z" />
    <glyph glyph-name="logicalnot" unicode="&#xac;" horiz-adv-x="1706" 
d="M254 866h1198v-501h-229v274h-969v227z" />
    <glyph glyph-name="radical" unicode="&#x221a;" horiz-adv-x="1366" 
d="M1155 1714h215v-149h-96l-590 -1606h-119l-307 846l-145 -55l-37 129l360 127l223 -635z" />
    <glyph glyph-name="florin" unicode="&#x192;" horiz-adv-x="1366" 
d="M1020 1233q-59 0 -81.5 -19t-33.5 -75l-28 -158h159l-53 -307h-160l-121 -694l-2 -12q-35 -204 -98 -267q-44 -43 -103.5 -61.5t-158.5 -18.5h-197l-90 285h156q60 0 83 19.5t34 74.5l116 674h-110l53 307h111l30 178q1 6 4 21q33 194 97 256q45 43 105 62.5t157 19.5
h196l91 -285h-156z" />
    <glyph glyph-name="approxequal" unicode="&#x2248;" horiz-adv-x="1706" 
d="M1530 602v-254q-105 -71 -196 -104t-181 -33t-283 65.5t-309 65.5q-82 0 -172.5 -37t-210.5 -121v254q111 74 209 109t195 35q115 0 304.5 -65.5t272.5 -65.5t170 35t201 116zM1530 1036v-254q-107 -70 -197 -102.5t-178 -32.5q-91 0 -284 64.5t-310 64.5q-84 0 -172 -36
t-211 -122v256q112 74 209 108t195 34q115 0 304.5 -65.5t272.5 -65.5t170.5 35.5t200.5 115.5z" />
    <glyph glyph-name="Delta" unicode="&#x2206;" horiz-adv-x="1468" 
d="M733 1059l-262 -774h526zM537 1473h395l541 -1473h-1475z" />
    <glyph glyph-name="guillemotleft" unicode="&#xab;" horiz-adv-x="901" 
d="M621 1018l198 -103l-162 -331l183 -365l-201 -98l-231 463zM283 1018l198 -103l-162 -331l183 -365l-201 -98l-229 463z" />
    <glyph glyph-name="guillemotright" unicode="&#xbb;" horiz-adv-x="901" 
d="M618 121l-200 100l162 332l-183 367l201 98l231 -465zM281 121l-199 100l162 332l-183 367l201 98l232 -465z" />
    <glyph glyph-name="ellipsis" unicode="&#x2026;" horiz-adv-x="2048" 
d="M518 356v-356h-354v356h354zM1200 356v-356h-354v356h354zM1884 356v-356h-354v356h354z" />
    <glyph glyph-name="nonbreakingspace" unicode="&#xa0;" horiz-adv-x="1366" 
 />
    <glyph glyph-name="Agrave" unicode="&#xc0;" horiz-adv-x="1442" 
d="M1030 1518h244l92 -342h-309q-222 0 -352.5 -82.5t-196.5 -264.5h387v285h410v-1114h-410v479h-428q6 -124 45 -243.5t111 -235.5l-324 -213q-122 187 -183 375.5t-61 380.5q0 217 72.5 408t204.5 323q123 123 295.5 183.5t402.5 60.5zM800 1894l199 -282h-178l-338 282
h317z" />
    <glyph glyph-name="Atilde" unicode="&#xc3;" horiz-adv-x="1442" 
d="M1030 1518h244l92 -342h-309q-222 0 -352.5 -82.5t-196.5 -264.5h387v285h410v-1114h-410v479h-428q6 -124 45 -243.5t111 -235.5l-324 -213q-122 187 -183 375.5t-61 380.5q0 217 72.5 408t204.5 323q123 123 295.5 183.5t402.5 60.5zM1149 1882q-20 -113 -76 -175
t-137 -62q-16 0 -31 2t-29 6l-127 37q-6 2 -13.5 3t-23.5 1q-34 0 -55 -17.5t-29 -52.5h-123q23 116 75 173.5t132 57.5q16 0 32.5 -2.5t35.5 -7.5l120 -32q12 -4 22.5 -5.5t21.5 -1.5q34 0 54 19t28 57h123z" />
    <glyph glyph-name="Otilde" unicode="&#xd5;" horiz-adv-x="1493" 
d="M469 920q0 -107 22 -213.5t64 -204.5q39 -91 89 -140t104 -49q35 0 70 22.5t61 61.5q69 107 107 240.5t38 271.5q0 154 -61.5 215.5t-214.5 61.5t-216 -60.5t-63 -205.5zM748 1536q355 0 521.5 -143t166.5 -449q0 -212 -67 -413.5t-185 -348.5q-90 -112 -198 -166.5
t-238 -54.5q-132 0 -240.5 55t-198.5 166q-119 147 -185.5 348t-66.5 414q0 305 167.5 448.5t523.5 143.5zM1059 1882q-20 -113 -76 -175t-137 -62q-16 0 -31 2t-29 6l-127 37q-6 2 -13.5 3t-23.5 1q-34 0 -55 -17.5t-29 -52.5h-123q23 116 75 173.5t132 57.5
q16 0 32.5 -2.5t35.5 -7.5l120 -32q12 -4 22.5 -5.5t21.5 -1.5q34 0 54 19t28 57h123z" />
    <glyph glyph-name="OE" unicode="&#x152;" horiz-adv-x="2128" 
d="M2040 1171h-608v-219h555l-99 -350h-456v-252h659l-109 -350h-942v100q-56 -70 -128.5 -104.5t-163.5 -34.5q-132 0 -240.5 55t-198.5 166q-119 147 -185.5 348t-66.5 414q0 305 167.5 448.5t523.5 143.5q71 0 136 -4.5t123 -13.5h941zM469 920q0 -107 22 -213.5
t64 -204.5q39 -91 89 -140t104 -49q35 0 70 22.5t61 61.5q69 107 107 240.5t38 271.5q0 154 -61.5 215.5t-214.5 61.5t-216 -60.5t-63 -205.5z" />
    <glyph glyph-name="oe" unicode="&#x153;" horiz-adv-x="1778" 
d="M1692 303l-84 -303h-156q-162 0 -291.5 48.5t-206.5 137.5q-83 -111 -173 -163t-199 -52q-99 0 -181 40.5t-149 121.5q-95 114 -150 268.5t-55 309.5q0 233 124.5 336.5t410.5 103.5q127 0 213 -15.5t139 -48.5q55 32 139.5 48t200.5 16q252 0 364.5 -74.5t112.5 -238.5
q0 -143 -98.5 -270t-298.5 -242q27 -12 62 -17.5t79 -5.5h197zM1116 537q127 66 195.5 132.5t68.5 123.5q0 34 -29 52.5t-83 18.5q-83 0 -132 -51.5t-49 -140.5q0 -34 7 -66.5t22 -68.5zM745 680q0 84 -40 124t-123 40q-85 0 -125.5 -40.5t-40.5 -123.5q0 -51 11 -109
t32 -118q27 -79 57.5 -118.5t65.5 -39.5q24 0 47.5 22.5t46.5 69.5q32 68 50.5 146t18.5 147z" />
    <glyph glyph-name="endash" unicode="&#x2013;" 
d="M0 692h1024v-241h-1024v241z" />
    <glyph glyph-name="emdash" unicode="&#x2014;" horiz-adv-x="2048" 
d="M2048 451h-2048v241h2048v-241z" />
    <glyph glyph-name="quotedblleft" unicode="&#x201c;" horiz-adv-x="909" 
d="M420 1518h233l125 -408h-223zM455 1110h-224l-145 408h233z" />
    <glyph glyph-name="quotedblright" unicode="&#x201d;" horiz-adv-x="909" 
d="M592 1518h233l-145 -408h-223zM356 1110h-223l125 408h234z" />
    <glyph glyph-name="quoteleft" unicode="&#x2018;" horiz-adv-x="707" 
d="M463 1518l133 -519h-342l-152 519h361z" />
    <glyph glyph-name="quoteright" unicode="&#x2019;" horiz-adv-x="707" 
d="M264 1518h361l-168 -519h-344z" />
    <glyph glyph-name="divide" unicode="&#xf7;" horiz-adv-x="1706" 
d="M854 371q68 0 116 -48.5t48 -117.5q0 -68 -47.5 -116t-116.5 -48t-117.5 48t-48.5 116t49 117t117 49zM254 727h1198v-231h-1198v231zM854 1182q67 0 115.5 -49t48.5 -117t-48.5 -116t-117.5 -48t-116.5 48t-47.5 116t49 117t117 49z" />
    <glyph glyph-name="lozenge" unicode="&#x25ca;" horiz-adv-x="1012" 
d="M506 1409l-385 -817l385 -825l385 825zM506 1653l500 -1061l-500 -1069l-500 1069z" />
    <glyph glyph-name="ydieresis" unicode="&#xff;" horiz-adv-x="1124" 
d="M385 115l-399 1024h415l170 -568l189 568h379l-551 -1518h-383zM862 1499v-262h-244v262h244zM508 1499v-262h-244v262h244z" />
    <glyph glyph-name="Ydieresis" unicode="&#x178;" horiz-adv-x="1262" 
d="M858 0l-352 -225q-43 64 -61.5 175.5t-18.5 340.5v311l-440 916h440l205 -496l203 496h442l-442 -916v-283q0 -130 5.5 -206t18.5 -113zM920 1884v-262h-244v262h244zM566 1884v-262h-244v262h244z" />
    <glyph glyph-name="fraction" unicode="&#x2215;" horiz-adv-x="342" 
d="M420 1536h262l-760 -1575h-264z" />
    <glyph glyph-name="currency" unicode="&#xa4;" horiz-adv-x="1366" 
d="M1266 315l-103 -342h-20q-192 0 -338.5 51t-265.5 158q-68 60 -123.5 139t-98.5 173h-245l51 188h131q-9 44 -14.5 82t-8.5 72h-159l51 188h113q15 116 62.5 209.5t123.5 157.5q81 67 192 97t293 30h236l98 -347h-283q-126 0 -198.5 -35.5t-102.5 -111.5h545l-51 -188
l-514 -1q3 -38 10 -75.5t19 -77.5h452l-51 -188h-293q79 -87 197 -133t264 -46h31z" />
    <glyph glyph-name="guilsinglleft" unicode="&#x2039;" horiz-adv-x="563" 
d="M283 1018l198 -103l-162 -331l183 -365l-201 -98l-229 463z" />
    <glyph glyph-name="guilsinglright" unicode="&#x203a;" horiz-adv-x="563" 
d="M281 121l-199 100l162 332l-183 367l201 98l232 -465z" />
    <glyph glyph-name="fi" unicode="&#xf001;" horiz-adv-x="1331" 
d="M840 1518h368v-299h-368v299zM840 1139h368v-1139h-368v1139zM156 829h-80v310h80v20q0 192 80 275.5t266 83.5h196l90 -285h-155q-61 0 -84 -20.5t-23 -73.5v-11h207v-299h-207v-829h-370v829z" />
    <glyph glyph-name="fl" unicode="&#xf002;" horiz-adv-x="1331" 
d="M840 1518h368v-1518h-368v1518zM156 829h-80v310h80v20q0 192 80 275.5t266 83.5h196l90 -285h-155q-60 0 -83.5 -20t-23.5 -72v-13h207v-299h-207v-829h-370v829z" />
    <glyph glyph-name="daggerdbl" unicode="&#x2021;" 
d="M694 1518v-365h303v-285h-303v-458h303v-285h-303v-363h-364v363h-303v285h303v458h-303v285h303v365h364z" />
    <glyph glyph-name="periodcentered" unicode="&#xb7;" horiz-adv-x="707" 
d="M147 764q0 84 60 144.5t145 60.5q87 0 147 -59.5t60 -145.5t-61 -146.5t-146 -60.5q-82 0 -143.5 62t-61.5 145z" />
    <glyph glyph-name="quotesinglbase" unicode="&#x201a;" horiz-adv-x="707" 
d="M211 356h360l-168 -518h-344z" />
    <glyph glyph-name="quotedblbase" unicode="&#x201e;" horiz-adv-x="909" 
d="M526 246h234l-146 -408h-223zM291 -162h-223l125 408h233z" />
    <glyph glyph-name="perthousand" unicode="&#x2030;" horiz-adv-x="2218" 
d="M1731 393q0 -75 34.5 -142t69.5 -67t68.5 67t33.5 144q0 46 -25 68t-77 22t-78 -23t-26 -69zM1501 434q0 138 79 201t253 63t254 -63.5t80 -200.5q0 -196 -98.5 -334.5t-235.5 -138.5t-234.5 138t-97.5 335zM1001 393q0 -75 34 -142t69 -67t68.5 67t33.5 144q0 46 -25 68
t-77 22t-77.5 -22.5t-25.5 -69.5zM772 434q0 138 79 201t253 63q173 0 252.5 -63t79.5 -201q0 -197 -97.5 -335t-234.5 -138t-234.5 138t-97.5 335zM1024 1518l221 -121l-842 -1397l-213 131zM281 1233q0 -75 34.5 -143t69.5 -68t68.5 66.5t33.5 144.5q0 46 -25 68t-77 22
q-53 0 -78.5 -22.5t-25.5 -67.5zM51 1272q0 137 80 200.5t254 63.5q173 0 252.5 -63t79.5 -201q0 -197 -97.5 -334t-234.5 -137t-235.5 137.5t-98.5 333.5z" />
    <glyph glyph-name="Acircumflex" unicode="&#xc2;" horiz-adv-x="1442" 
d="M1030 1518h244l92 -342h-309q-222 0 -352.5 -82.5t-196.5 -264.5h387v285h410v-1114h-410v479h-428q6 -124 45 -243.5t111 -235.5l-324 -213q-122 187 -183 375.5t-61 380.5q0 217 72.5 408t204.5 323q123 123 295.5 183.5t402.5 60.5zM698 1894h256l199 -282h-162
l-164 139l-162 -139h-164z" />
    <glyph glyph-name="Ecircumflex" unicode="&#xca;" horiz-adv-x="1233" 
d="M1145 1180h-608v-236h555l-101 -342h-454v-260h659l-109 -342h-958v1518h924zM477 1894h256l199 -282h-162l-164 139l-162 -139h-164z" />
    <glyph glyph-name="Aacute" unicode="&#xc1;" horiz-adv-x="1442" 
d="M1030 1518h244l92 -342h-309q-222 0 -352.5 -82.5t-196.5 -264.5h387v285h410v-1114h-410v479h-428q6 -124 45 -243.5t111 -235.5l-324 -213q-122 187 -183 375.5t-61 380.5q0 217 72.5 408t204.5 323q123 123 295.5 183.5t402.5 60.5zM1171 1894l-336 -282h-178l199 282
h315z" />
    <glyph glyph-name="Edieresis" unicode="&#xcb;" horiz-adv-x="1233" 
d="M1145 1180h-608v-236h555l-101 -342h-454v-260h659l-109 -342h-958v1518h924zM905 1884v-262h-244v262h244zM551 1884v-262h-244v262h244z" />
    <glyph glyph-name="Egrave" unicode="&#xc8;" horiz-adv-x="1233" 
d="M1145 1180h-608v-236h555l-101 -342h-454v-260h659l-109 -342h-958v1518h924zM579 1894l199 -282h-178l-338 282h317z" />
    <glyph glyph-name="Iacute" unicode="&#xcd;" horiz-adv-x="692" 
d="M137 1518h418v-1518h-418v1518zM680 1894l-336 -282h-178l199 282h315z" />
    <glyph glyph-name="Icircumflex" unicode="&#xce;" horiz-adv-x="692" 
d="M137 1518h418v-1518h-418v1518zM207 1894h256l199 -282h-162l-164 139l-162 -139h-164z" />
    <glyph glyph-name="Idieresis" unicode="&#xcf;" horiz-adv-x="692" 
d="M137 1518h418v-1518h-418v1518zM635 1884v-262h-244v262h244zM281 1884v-262h-244v262h244z" />
    <glyph glyph-name="Igrave" unicode="&#xcc;" horiz-adv-x="692" 
d="M137 1518h418v-1518h-418v1518zM309 1894l199 -282h-178l-338 282h317z" />
    <glyph glyph-name="Oacute" unicode="&#xd3;" horiz-adv-x="1493" 
d="M469 920q0 -107 22 -213.5t64 -204.5q39 -91 89 -140t104 -49q35 0 70 22.5t61 61.5q69 107 107 240.5t38 271.5q0 154 -61.5 215.5t-214.5 61.5t-216 -60.5t-63 -205.5zM748 1536q355 0 521.5 -143t166.5 -449q0 -212 -67 -413.5t-185 -348.5q-90 -112 -198 -166.5
t-238 -54.5q-132 0 -240.5 55t-198.5 166q-119 147 -185.5 348t-66.5 414q0 305 167.5 448.5t523.5 143.5zM1081 1894l-336 -282h-178l199 282h315z" />
    <glyph glyph-name="Ocircumflex" unicode="&#xd4;" horiz-adv-x="1493" 
d="M469 920q0 -107 22 -213.5t64 -204.5q39 -91 89 -140t104 -49q35 0 70 22.5t61 61.5q69 107 107 240.5t38 271.5q0 154 -61.5 215.5t-214.5 61.5t-216 -60.5t-63 -205.5zM748 1536q355 0 521.5 -143t166.5 -449q0 -212 -67 -413.5t-185 -348.5q-90 -112 -198 -166.5
t-238 -54.5q-132 0 -240.5 55t-198.5 166q-119 147 -185.5 348t-66.5 414q0 305 167.5 448.5t523.5 143.5zM608 1894h256l199 -282h-162l-164 139l-162 -139h-164z" />
    <glyph glyph-name="apple" unicode="&#xf000;" horiz-adv-x="1618" 
d="M836 1216q-1 6 -1.5 14t-0.5 23q0 124 95 229.5t236 131.5q1 -10 1.5 -23t0.5 -39q0 -131 -103.5 -234.5t-203.5 -103.5h-8q-3 0 -7.5 1t-8.5 1zM1505 403q-114 -247 -205 -342.5t-204 -95.5q-50 0 -131.5 33t-122.5 33q-45 0 -131 -33t-127 -33q-64 0 -128.5 44
t-129.5 132q-102 140 -157.5 295.5t-55.5 300.5q0 219 125 356.5t323 137.5q68 0 155 -34t124 -34q34 0 121.5 35t152.5 35q110 0 198 -40t161 -124q-102 -65 -151.5 -145.5t-49.5 -182.5q0 -113 60 -200t173 -138z" />
    <glyph glyph-name="Ograve" unicode="&#xd2;" horiz-adv-x="1493" 
d="M469 920q0 -107 22 -213.5t64 -204.5q39 -91 89 -140t104 -49q35 0 70 22.5t61 61.5q69 107 107 240.5t38 271.5q0 154 -61.5 215.5t-214.5 61.5t-216 -60.5t-63 -205.5zM748 1536q355 0 521.5 -143t166.5 -449q0 -212 -67 -413.5t-185 -348.5q-90 -112 -198 -166.5
t-238 -54.5q-132 0 -240.5 55t-198.5 166q-119 147 -185.5 348t-66.5 414q0 305 167.5 448.5t523.5 143.5zM710 1894l199 -282h-178l-338 282h317z" />
    <glyph glyph-name="Uacute" unicode="&#xda;" horiz-adv-x="1436" 
d="M1309 1518v-1518h-478q-214 0 -310 13.5t-167 45.5q-145 65 -221 211.5t-76 362.5q0 192 65.5 410.5t201.5 474.5h424q-148 -305 -212.5 -505t-64.5 -349q0 -166 69.5 -242t221.5 -76h139v1172h408zM1155 1894l-336 -282h-178l199 282h315z" />
    <glyph glyph-name="Ucircumflex" unicode="&#xdb;" horiz-adv-x="1436" 
d="M1309 1518v-1518h-478q-214 0 -310 13.5t-167 45.5q-145 65 -221 211.5t-76 362.5q0 192 65.5 410.5t201.5 474.5h424q-148 -305 -212.5 -505t-64.5 -349q0 -166 69.5 -242t221.5 -76h139v1172h408zM682 1894h256l199 -282h-162l-164 139l-162 -139h-164z" />
    <glyph glyph-name="Ugrave" unicode="&#xd9;" horiz-adv-x="1436" 
d="M1309 1518v-1518h-478q-214 0 -310 13.5t-167 45.5q-145 65 -221 211.5t-76 362.5q0 192 65.5 410.5t201.5 474.5h424q-148 -305 -212.5 -505t-64.5 -349q0 -166 69.5 -242t221.5 -76h139v1172h408zM784 1894l199 -282h-178l-338 282h317z" />
    <glyph glyph-name="dotlessi" unicode="&#x131;" horiz-adv-x="616" 
d="M123 1139h371v-1139h-371v1139z" />
    <glyph glyph-name="circumflex" unicode="&#x2c6;" 
d="M383 1509h256l199 -282h-162l-164 139l-162 -139h-164z" />
    <glyph glyph-name="tilde" unicode="&#x2dc;" 
d="M834 1497q-20 -113 -76 -175t-137 -62q-16 0 -31 2t-29 6l-127 37q-6 2 -13.5 3t-23.5 1q-34 0 -55 -17.5t-29 -52.5h-123q23 116 75 173.5t132 57.5q16 0 32.5 -2.5t35.5 -7.5l120 -32q12 -4 22.5 -5.5t21.5 -1.5q34 0 54 19t28 57h123z" />
    <glyph glyph-name="macron" unicode="&#xaf;" 
d="M811 1456v-178h-598v178h598z" />
    <glyph glyph-name="breve" unicode="&#x2d8;" 
d="M348 1509q8 -55 48 -81.5t116 -26.5t117 27t47 81h151q-15 -146 -91 -214t-224 -68q-147 0 -223.5 68.5t-91.5 213.5h151z" />
    <glyph glyph-name="dotaccent" unicode="&#x2d9;" 
d="M637 1503v-270h-250v270h250z" />
    <glyph glyph-name="ring" unicode="&#x2da;" 
d="M600 1444q0 38 -24.5 63t-61.5 25t-62.5 -25.5t-25.5 -62.5q0 -36 25.5 -61t62.5 -25q36 0 61 25t25 61zM512 1681q98 0 167 -69t69 -166q0 -98 -69 -167t-167 -69t-165.5 68.5t-67.5 167.5q0 98 68 166.5t165 68.5z" />
    <glyph glyph-name="cedilla" unicode="&#xb8;" 
d="M455 -221l39 137h75q125 0 186.5 -48t61.5 -144q0 -100 -66 -154.5t-188 -54.5q-58 0 -130 11.5t-161 35.5l43 139q78 -19 130.5 -28t91.5 -9q40 0 59.5 15.5t19.5 46.5q0 28 -27.5 41.5t-86.5 13.5q-7 0 -23 -1t-24 -1z" />
    <glyph glyph-name="hungarumlaut" unicode="&#x2dd;" 
d="M727 1509h274l-292 -282h-146zM393 1509h264l-264 -282h-129z" />
    <glyph glyph-name="ogonek" unicode="&#x2db;" 
d="M641 0q-60 -49 -88.5 -91.5t-28.5 -84.5q0 -35 17.5 -52.5t52.5 -17.5h92v-182h-72q-149 0 -211.5 41.5t-62.5 136.5q0 69 45 130t139 120h117z" />
    <glyph glyph-name="caron" unicode="&#x2c7;" 
d="M639 1227h-256l-197 282h162l164 -139l162 139h164z" />
    <glyph glyph-name="Lslash" unicode="&#x141;" horiz-adv-x="1104" 
d="M156 416l-138 -97v318l138 96v785h407v-502l262 182v-319l-262 -183v-325h527l-105 -371h-829v416z" />
    <glyph glyph-name="lslash" unicode="&#x142;" horiz-adv-x="616" 
d="M123 567l-123 -88v232l123 86v721h371v-512l122 86v-232l-122 -86v-774h-371v567z" />
    <glyph glyph-name="Scaron" unicode="&#x160;" horiz-adv-x="1081" 
d="M1001 1171h-399q-41 0 -59.5 -12t-18.5 -39q0 -15 8.5 -31t28.5 -38l332 -371q76 -86 112.5 -167t36.5 -165q0 -83 -35 -154.5t-98 -117.5q-56 -41 -139 -58.5t-254 -17.5h-350l-100 350h442q35 0 53.5 14t18.5 42q0 11 -8.5 27.5t-22.5 33.5l-363 405q-56 64 -86 140
t-30 153q0 62 18 118t53 103q54 71 141 101.5t257 30.5h370zM657 1612h-256l-197 282h162l164 -139l162 139h164z" />
    <glyph glyph-name="scaron" unicode="&#x161;" horiz-adv-x="834" 
d="M57 299h279q24 0 34.5 7t10.5 24q0 11 -6.5 24.5t-18.5 28.5l-190 248q-48 62 -72 122t-24 117q0 70 29.5 124.5t88.5 95.5q40 26 100 37.5t179 11.5h207l88 -299h-209q-29 0 -43 -9.5t-14 -29.5q0 -10 4 -21t10 -18l197 -254q44 -58 67 -118t23 -118q0 -139 -92 -205.5
t-287 -66.5h-271zM545 1227h-256l-197 282h162l164 -139l162 139h164z" />
    <glyph glyph-name="Zcaron" unicode="&#x17d;" horiz-adv-x="1276" 
d="M582 1171h-449l86 347h969l-522 -1168h505l-102 -350h-1012zM756 1612h-256l-197 282h162l164 -139l162 139h164z" />
    <glyph glyph-name="zcaron" unicode="&#x17e;" horiz-adv-x="985" 
d="M416 834h-332l88 305h782l-387 -836h359l-95 -303h-802zM621 1227h-256l-197 282h162l164 -139l162 139h164z" />
    <glyph glyph-name="brokenbar" unicode="&#xa6;" 
d="M393 408h240v-758h-240v758zM393 1432h240v-758h-240v758z" />
    <glyph glyph-name="Eth" unicode="&#xd0;" horiz-adv-x="1460" 
d="M147 631h-147v260h147v223h408v-223h170v-260h-170v-281q200 20 328.5 173.5t128.5 371.5q0 136 -71.5 208.5t-205.5 72.5h-659l92 342h563q187 0 299 -31t197 -103q93 -78 140.5 -198.5t47.5 -274.5q0 -195 -78 -374t-219 -306q-135 -122 -297.5 -176.5t-402.5 -54.5
h-271v631z" />
    <glyph glyph-name="eth" unicode="&#xf0;" horiz-adv-x="1114" 
d="M397 1536q29 -14 66.5 -37.5t87.5 -58.5l111 104l90 -84l-103 -92q212 -161 316 -336.5t104 -372.5q0 -149 -52 -292t-145 -248q-64 -74 -143 -111t-172 -37t-172 37.5t-143 110.5q-91 103 -144 244.5t-53 281.5q0 204 114 303t349 99q29 0 64.5 -2t70.5 -5
q-44 52 -84 91.5t-80 68.5l-123 -113l-82 91l101 94q-11 10 -32.5 24.5t-82.5 49.5zM715 616q0 76 -39 113t-119 37t-119 -37t-39 -113q0 -126 53 -238t105 -112t105 111.5t53 238.5z" />
    <glyph glyph-name="Yacute" unicode="&#xdd;" horiz-adv-x="1262" 
d="M858 0l-352 -225q-43 64 -61.5 175.5t-18.5 340.5v311l-440 916h440l205 -496l203 496h442l-442 -916v-283q0 -130 5.5 -206t18.5 -113zM965 1894l-336 -282h-178l199 282h315z" />
    <glyph glyph-name="yacute" unicode="&#xfd;" horiz-adv-x="1124" 
d="M385 115l-399 1024h415l170 -568l189 568h379l-551 -1518h-383zM907 1509l-336 -282h-178l199 282h315z" />
    <glyph glyph-name="Thorn" unicode="&#xde;" horiz-adv-x="1327" 
d="M555 940v-375q152 76 235.5 159t83.5 159q0 59 -35.5 88.5t-105.5 29.5h-657l71 342v175h408v-175h252q225 0 352 -113t127 -312q0 -225 -185 -413t-546 -331v-174h-408v940h408z" />
    <glyph glyph-name="thorn" unicode="&#xfe;" horiz-adv-x="1176" 
d="M479 317q128 38 204.5 135t76.5 220q0 79 -42.5 118t-127.5 39h-111v-512zM115 1518h364v-379h74q142 0 220 -12t136 -40q103 -48 161 -151t58 -238q0 -257 -174.5 -446t-474.5 -252v-379h-364v1897z" />
    <glyph glyph-name="minus" unicode="&#x2212;" horiz-adv-x="1706" 
d="M254 729h1198v-235h-1198v235z" />
    <glyph glyph-name="multiply" unicode="&#xd7;" horiz-adv-x="1706" 
d="M430 1214l440 -440l441 440l162 -161l-441 -443l441 -440l-162 -162l-441 441l-440 -441l-162 162l441 440l-441 443z" />
    <glyph glyph-name="onesuperior" unicode="&#xb9;" horiz-adv-x="901" 
d="M604 598h-266v702h-164l59 209h371v-911z" />
    <glyph glyph-name="twosuperior" unicode="&#xb2;" horiz-adv-x="901" 
d="M184 1509h301q128 0 194 -47t66 -137q0 -31 -10 -64t-33 -75l-215 -375h291l-67 -213h-641l356 625q7 12 10.5 21.5t3.5 19.5q0 17 -13 26.5t-36 9.5h-266z" />
    <glyph glyph-name="threesuperior" unicode="&#xb3;" horiz-adv-x="901" 
d="M117 1300l59 209h328q121 0 191.5 -54.5t70.5 -147.5q0 -60 -33.5 -114t-101.5 -106q85 -65 124.5 -129t39.5 -135q0 -65 -34 -117.5t-93 -78.5q-36 -16 -86 -22.5t-176 -6.5h-240l-68 213h318q36 0 57 13t21 36q0 38 -55.5 90t-178.5 131q112 70 159.5 112.5t47.5 72.5
q0 14 -12 24t-31 10h-307z" />
    <glyph glyph-name="onequarter" unicode="&#xbc;" horiz-adv-x="2062" 
d="M1915 379h78v-195h-78v-184h-244v184h-397v174l239 492h259l-236 -475h135v166h244v-162zM1280 1536h262l-760 -1575h-264zM578 659h-254v656h-156l55 194h355v-850z" />
    <glyph glyph-name="onehalf" unicode="&#xbd;" horiz-adv-x="2062" 
d="M1378 850h287q121 0 184.5 -44t63.5 -128q0 -31 -10 -62t-31 -67l-205 -350h277l-64 -199h-610l338 582q7 11 10.5 21t3.5 18q0 16 -11.5 25t-33.5 9h-256zM1280 1536h262l-760 -1575h-264zM578 659h-254v656h-156l55 194h355v-850z" />
    <glyph glyph-name="threequarters" unicode="&#xbe;" horiz-adv-x="2062" 
d="M1915 379h78v-195h-78v-184h-244v184h-397v174l239 492h259l-236 -475h135v166h244v-162zM1280 1536h262l-760 -1575h-264zM113 1315l57 194h309q117 0 184.5 -50.5t67.5 -137.5q0 -55 -32 -106t-97 -99q81 -62 118.5 -121t37.5 -125q0 -62 -32 -110.5t-89 -73.5
q-35 -14 -82.5 -20.5t-167.5 -6.5h-229l-64 199h303q35 0 54.5 12.5t19.5 34.5q0 35 -52 83t-171 122q107 65 152.5 105t45.5 67q0 14 -11.5 23.5t-31.5 9.5h-290z" />
    <glyph glyph-name="franc" unicode="&#x20a3;" horiz-adv-x="1980" 
d="M1036 1518l92 -347h-591v-233h538l-98 -350h-440v-269q0 -141 5 -212.5t17 -106.5l-352 -225q-43 64 -61.5 175.5t-18.5 340.5v1227h909zM1317 1139h371v-58q36 35 89.5 52.5t123.5 17.5h22v-317q-82 -2 -140.5 -31t-94.5 -86v-717h-371v1139z" />
    <glyph glyph-name="Gbreve" unicode="&#x11e;" horiz-adv-x="1460" 
d="M1063 0q-242 0 -414.5 56t-294.5 173q-145 141 -221 318t-76 375q0 152 49 270.5t144 198.5q81 67 192 97t293 30h482l96 -347h-527q-174 0 -248.5 -65t-74.5 -215q0 -222 129.5 -369t345.5 -170v350h-162v336h555v-1038h-268zM557 1894q8 -55 48 -81.5t116 -26.5t117 27
t47 81h151q-15 -146 -91 -214t-224 -68q-147 0 -223.5 68.5t-91.5 213.5h151z" />
    <glyph glyph-name="gbreve" unicode="&#x11f;" horiz-adv-x="1176" 
d="M559 834q-71 0 -107 -40t-36 -118q0 -139 77.5 -233.5t202.5 -104.5v496h-137zM133 -76h496q51 0 69.5 16t18.5 64v16q-301 17 -485.5 206t-184.5 476q0 222 130.5 329.5t400.5 107.5h485v-1116q0 -225 -94.5 -313.5t-335.5 -88.5h-410zM424 1509q8 -55 48 -81.5
t116 -26.5t117 27t47 81h151q-15 -146 -91 -214t-224 -68q-147 0 -223.5 68.5t-91.5 213.5h151z" />
    <glyph glyph-name="Idotaccent" unicode="&#x130;" horiz-adv-x="692" 
d="M137 1518h418v-1518h-418v1518zM461 1888v-270h-250v270h250z" />
    <glyph glyph-name="Scedilla" unicode="&#x15e;" horiz-adv-x="1081" 
d="M1001 1171h-399q-41 0 -59.5 -12t-18.5 -39q0 -15 8.5 -31t28.5 -38l332 -371q76 -86 112.5 -167t36.5 -165q0 -83 -35 -154.5t-98 -117.5q-56 -41 -139 -58.5t-254 -17.5h-350l-100 350h442q35 0 53.5 14t18.5 42q0 11 -8.5 27.5t-22.5 33.5l-363 405q-56 64 -86 140
t-30 153q0 62 18 118t53 103q54 71 141 101.5t257 30.5h370zM484 -221l39 137h75q125 0 186.5 -48t61.5 -144q0 -100 -66 -154.5t-188 -54.5q-58 0 -130 11.5t-161 35.5l43 139q78 -19 130.5 -28t91.5 -9q40 0 59.5 15.5t19.5 46.5q0 28 -27.5 41.5t-86.5 13.5q-7 0 -23 -1
t-24 -1z" />
    <glyph glyph-name="scedilla" unicode="&#x15f;" horiz-adv-x="834" 
d="M57 299h279q24 0 34.5 7t10.5 24q0 11 -6.5 24.5t-18.5 28.5l-190 248q-48 62 -72 122t-24 117q0 70 29.5 124.5t88.5 95.5q40 26 100 37.5t179 11.5h207l88 -299h-209q-29 0 -43 -9.5t-14 -29.5q0 -10 4 -21t10 -18l197 -254q44 -58 67 -118t23 -118q0 -139 -92 -205.5
t-287 -66.5h-271zM361 -221l39 137h75q125 0 186.5 -48t61.5 -144q0 -100 -66 -154.5t-188 -54.5q-58 0 -130 11.5t-161 35.5l43 139q78 -19 130.5 -28t91.5 -9q40 0 59.5 15.5t19.5 46.5q0 28 -27.5 41.5t-86.5 13.5q-7 0 -23 -1t-24 -1z" />
    <glyph glyph-name="Cacute" unicode="&#x106;" horiz-adv-x="1147" 
d="M971 0q-194 0 -340 50t-264 157q-148 132 -229 318.5t-81 394.5q0 153 49 272t144 199q81 67 192 97t293 30h236l98 -347h-283q-174 0 -248.5 -64.5t-74.5 -213.5q0 -255 160.5 -403t439.5 -148h31l-103 -342h-20zM1026 1894l-336 -282h-178l199 282h315z" />
    <glyph glyph-name="cacute" unicode="&#x107;" horiz-adv-x="872" 
d="M735 0q-147 0 -264.5 43.5t-204.5 130.5q-108 107 -163.5 240t-55.5 286q0 217 120.5 328t356.5 111h217l88 -305h-233q-96 0 -139 -39.5t-43 -126.5q0 -158 107.5 -261.5t275.5 -103.5h43l-86 -303h-19zM852 1509l-336 -282h-178l199 282h315z" />
    <glyph glyph-name="Ccaron" unicode="&#x10c;" horiz-adv-x="1147" 
d="M971 0q-194 0 -340 50t-264 157q-148 132 -229 318.5t-81 394.5q0 153 49 272t144 199q81 67 192 97t293 30h236l98 -347h-283q-174 0 -248.5 -64.5t-74.5 -213.5q0 -255 160.5 -403t439.5 -148h31l-103 -342h-20zM809 1612h-256l-197 282h162l164 -139l162 139h164z" />
    <glyph glyph-name="ccaron" unicode="&#x10d;" horiz-adv-x="872" 
d="M735 0q-147 0 -264.5 43.5t-204.5 130.5q-108 107 -163.5 240t-55.5 286q0 217 120.5 328t356.5 111h217l88 -305h-233q-96 0 -139 -39.5t-43 -126.5q0 -158 107.5 -261.5t275.5 -103.5h43l-86 -303h-19zM635 1227h-256l-197 282h162l164 -139l162 139h164z" />
    <glyph glyph-name="dcroat" unicode="&#x111;" horiz-adv-x="1171" 
d="M575 834q-84 0 -122.5 -38.5t-38.5 -121.5q0 -147 81.5 -251t206.5 -116v527h-127zM844 0q-186 0 -296.5 26.5t-201.5 88.5q-142 96 -220.5 254t-78.5 350q0 207 111 313.5t329 106.5h224v102h-195v180h186v97h365v-97h104v-188h-104v-1233h-223z" />
    <glyph glyph-name="sfthyphen" unicode="&#xad;" horiz-adv-x="711" 
d="M51 729h608v-307h-608v307z" />
    <glyph glyph-name="periodcentered" unicode="&#x2219;" horiz-adv-x="707" 
d="M147 764q0 84 60 144.5t145 60.5q87 0 147 -59.5t60 -145.5t-61 -146.5t-146 -60.5q-82 0 -143.5 62t-61.5 145z" />
    <glyph glyph-name="euro" horiz-adv-x="1366" 
d="M1266 315l-103 -342h-20q-192 0 -338.5 51t-265.5 158q-68 60 -123.5 139t-98.5 173h-245l51 188h131q-9 44 -14.5 82t-8.5 72h-159l51 188h113q15 116 62.5 209.5t123.5 157.5q81 67 192 97t293 30h236l98 -347h-283q-126 0 -198.5 -35.5t-102.5 -111.5h545l-51 -188
l-514 -1q3 -38 10 -75.5t19 -77.5h452l-51 -188h-293q79 -87 197 -133t264 -46h31z" />
    <glyph glyph-name="euro" unicode="&#x20ac;" horiz-adv-x="1366" 
d="M1266 315l-103 -342h-20q-192 0 -338.5 51t-265.5 158q-68 60 -123.5 139t-98.5 173h-245l51 188h131q-9 44 -14.5 82t-8.5 72h-159l51 188h113q15 116 62.5 209.5t123.5 157.5q81 67 192 97t293 30h236l98 -347h-283q-126 0 -198.5 -35.5t-102.5 -111.5h545l-51 -188
l-514 -1q3 -38 10 -75.5t19 -77.5h452l-51 -188h-293q79 -87 197 -133t264 -46h31z" />
    </font>
</defs>
</svg>
